<svg width="151" height="68" viewBox="0 0 151 68" fill="none" xmlns="http://www.w3.org/2000/svg">
    <g clip-path="url(#clip0_276_2066)">
        <path d="M17.877 65.8125V58.7257H22.4905V59.7245H18.9995V61.8553H22.11V62.8541H18.9995V65.8125H17.877ZM22.3305 65.8125L24.8228 58.7257H26.2116L28.7039 65.8125H27.5053L26.9631 64.2239H24.0808L23.5291 65.8125H22.3305ZM24.4042 63.2251H26.6206L25.365 59.5153H25.6789L24.4042 63.2251ZM31.9344 65.9266C31.4905 65.9266 31.0783 65.8442 30.6978 65.6793C30.3173 65.5081 29.9939 65.2766 29.7276 64.9849C29.4612 64.6932 29.2646 64.3571 29.1378 63.9766L30.089 63.5771C30.2603 64.0146 30.5107 64.3508 30.8405 64.5854C31.1703 64.82 31.5508 64.9374 31.982 64.9374C32.2357 64.9374 32.4576 64.8993 32.6479 64.8232C32.8381 64.7408 32.984 64.6266 33.0854 64.4808C33.1933 64.3349 33.2472 64.1668 33.2472 63.9766C33.2472 63.7166 33.1742 63.5105 33.0284 63.3583C32.8825 63.2061 32.6669 63.0856 32.3815 62.9968L31.0498 62.5783C30.5171 62.4134 30.1112 62.1629 29.8322 61.8268C29.5532 61.4843 29.4136 61.0848 29.4136 60.6282C29.4136 60.2287 29.5119 59.8799 29.7085 59.5819C29.9051 59.2775 30.1746 59.0396 30.5171 58.8684C30.8659 58.6972 31.2622 58.6116 31.7061 58.6116C32.131 58.6116 32.5179 58.6877 32.8667 58.8399C33.2155 58.9857 33.5135 59.1887 33.7608 59.4487C34.0145 59.7087 34.1984 60.0099 34.3126 60.3524L33.3803 60.7614C33.2408 60.3872 33.022 60.0987 32.724 59.8958C32.4323 59.6928 32.093 59.5914 31.7061 59.5914C31.4715 59.5914 31.2654 59.6326 31.0878 59.715C30.9103 59.7911 30.7708 59.9053 30.6693 60.0575C30.5742 60.2033 30.5266 60.3746 30.5266 60.5711C30.5266 60.7994 30.5995 61.0024 30.7454 61.1799C30.8912 61.3575 31.1132 61.4907 31.4113 61.5795L32.6479 61.9695C33.2123 62.1407 33.6372 62.388 33.9225 62.7114C34.2079 63.0285 34.3506 63.4249 34.3506 63.9005C34.3506 64.2937 34.246 64.6425 34.0367 64.9469C33.8338 65.2513 33.5516 65.4922 33.1901 65.6698C32.8286 65.841 32.4101 65.9266 31.9344 65.9266ZM36.8663 65.8125V59.7245H34.9828V58.7257H39.8342V59.7245H37.9792V65.8125H36.8663ZM42.3362 65.8125V58.7257H46.9498V59.7245H43.4587V61.8553H46.5693V62.8541H43.4587V65.8125H42.3362ZM51.2419 65.9266C50.7283 65.9266 50.2495 65.8347 49.8056 65.6508C49.368 65.4669 48.9812 65.21 48.645 64.8803C48.3153 64.5505 48.0553 64.1637 47.865 63.7198C47.6811 63.2758 47.5892 62.7907 47.5892 62.2644C47.5892 61.738 47.6811 61.2529 47.865 60.809C48.0553 60.3587 48.3153 59.9719 48.645 59.6484C48.9748 59.3187 49.3617 59.065 49.8056 58.8874C50.2495 58.7035 50.7283 58.6116 51.2419 58.6116C51.762 58.6116 52.2407 58.7035 52.6783 58.8874C53.1222 59.065 53.5091 59.3187 53.8388 59.6484C54.1749 59.9782 54.435 60.365 54.6189 60.809C54.8028 61.2529 54.8947 61.738 54.8947 62.2644C54.8947 62.7907 54.7996 63.2758 54.6093 63.7198C54.4254 64.1637 54.1686 64.5505 53.8388 64.8803C53.5091 65.21 53.1222 65.4669 52.6783 65.6508C52.2344 65.8347 51.7556 65.9266 51.2419 65.9266ZM51.2419 64.8993C51.6098 64.8993 51.9459 64.8327 52.2503 64.6995C52.561 64.5664 52.8305 64.3825 53.0588 64.1478C53.2871 63.9068 53.4647 63.6278 53.5915 63.3107C53.7183 62.9873 53.7818 62.6385 53.7818 62.2644C53.7818 61.8902 53.7183 61.5446 53.5915 61.2275C53.4647 60.9104 53.2871 60.6314 53.0588 60.3904C52.8305 60.1494 52.561 59.9623 52.2503 59.8292C51.9459 59.696 51.6098 59.6294 51.2419 59.6294C50.8741 59.6294 50.5349 59.696 50.2241 59.8292C49.9197 59.9623 49.6534 60.1494 49.4251 60.3904C49.1968 60.6314 49.0192 60.9104 48.8924 61.2275C48.7719 61.5446 48.7116 61.8902 48.7116 62.2644C48.7116 62.6385 48.7719 62.9873 48.8924 63.3107C49.0192 63.6278 49.1968 63.9068 49.4251 64.1478C49.6534 64.3825 49.9229 64.5664 50.2336 64.6995C50.5444 64.8327 50.8805 64.8993 51.2419 64.8993ZM59.5932 65.9266C59.0795 65.9266 58.6007 65.8347 58.1568 65.6508C57.7192 65.4669 57.3324 65.21 56.9963 64.8803C56.6665 64.5505 56.4065 64.1637 56.2163 63.7198C56.0324 63.2758 55.9404 62.7907 55.9404 62.2644C55.9404 61.738 56.0324 61.2529 56.2163 60.809C56.4065 60.3587 56.6665 59.9719 56.9963 59.6484C57.3261 59.3187 57.7129 59.065 58.1568 58.8874C58.6007 58.7035 59.0795 58.6116 59.5932 58.6116C60.1132 58.6116 60.592 58.7035 61.0296 58.8874C61.4735 59.065 61.8603 59.3187 62.1901 59.6484C62.5262 59.9782 62.7862 60.365 62.9701 60.809C63.154 61.2529 63.246 61.738 63.246 62.2644C63.246 62.7907 63.1508 63.2758 62.9606 63.7198C62.7767 64.1637 62.5199 64.5505 62.1901 64.8803C61.8603 65.21 61.4735 65.4669 61.0296 65.6508C60.5857 65.8347 60.1069 65.9266 59.5932 65.9266ZM59.5932 64.8993C59.961 64.8993 60.2971 64.8327 60.6015 64.6995C60.9123 64.5664 61.1818 64.3825 61.4101 64.1478C61.6384 63.9068 61.8159 63.6278 61.9428 63.3107C62.0696 62.9873 62.133 62.6385 62.133 62.2644C62.133 61.8902 62.0696 61.5446 61.9428 61.2275C61.8159 60.9104 61.6384 60.6314 61.4101 60.3904C61.1818 60.1494 60.9123 59.9623 60.6015 59.8292C60.2971 59.696 59.961 59.6294 59.5932 59.6294C59.2254 59.6294 58.8861 59.696 58.5754 59.8292C58.271 59.9623 58.0046 60.1494 57.7763 60.3904C57.548 60.6314 57.3705 60.9104 57.2436 61.2275C57.1231 61.5446 57.0629 61.8902 57.0629 62.2644C57.0629 62.6385 57.1231 62.9873 57.2436 63.3107C57.3705 63.6278 57.548 63.9068 57.7763 64.1478C58.0046 64.3825 58.2741 64.5664 58.5849 64.6995C58.8956 64.8327 59.2317 64.8993 59.5932 64.8993ZM64.5009 65.8125V58.7257H66.822C67.5576 58.7257 68.1949 58.8748 68.734 59.1728C69.2794 59.4645 69.7011 59.8767 69.9991 60.4094C70.2972 60.9421 70.4462 61.5604 70.4462 62.2644C70.4462 62.9619 70.2972 63.5802 69.9991 64.1193C69.7011 64.652 69.2794 65.0674 68.734 65.3654C68.1949 65.6635 67.5576 65.8125 66.822 65.8125H64.5009ZM65.6234 64.8137H66.841C67.342 64.8137 67.7764 64.7091 68.1442 64.4998C68.5184 64.2905 68.8069 63.9956 69.0098 63.6151C69.2128 63.2346 69.3142 62.7844 69.3142 62.2644C69.3142 61.7443 69.2096 61.2973 69.0003 60.9231C68.7974 60.5426 68.512 60.2477 68.1442 60.0384C67.7764 59.8292 67.342 59.7245 66.841 59.7245H65.6234V64.8137ZM75.2692 65.9266C74.8506 65.9266 74.4828 65.8505 74.1657 65.6984C73.8486 65.5398 73.5982 65.321 73.4142 65.042C73.2367 64.7566 73.1479 64.4269 73.1479 64.0527C73.1479 63.7356 73.205 63.4598 73.3191 63.2251C73.4333 62.9841 73.576 62.7812 73.7472 62.6163C73.9184 62.4451 74.0896 62.3024 74.2609 62.1883C74.4321 62.0741 74.5748 61.9853 74.6889 61.9219L75.2692 61.5985C75.4594 61.4907 75.6402 61.3765 75.8114 61.256C75.9826 61.1356 76.1221 60.9992 76.2299 60.847C76.3377 60.6948 76.3916 60.5236 76.3916 60.3333C76.3916 60.105 76.3155 59.9148 76.1633 59.7626C76.0111 59.604 75.8209 59.5248 75.5926 59.5248C75.3643 59.5248 75.174 59.6009 75.0219 59.7531C74.8697 59.9053 74.7936 60.1019 74.7936 60.3428C74.7936 60.5077 74.8316 60.6694 74.9077 60.828C74.9901 60.9865 75.0853 61.1356 75.1931 61.2751C75.3072 61.4082 75.4182 61.5351 75.526 61.6556L79.331 65.8125H77.9897L74.727 62.3024C74.5748 62.1375 74.4226 61.9631 74.2704 61.7792C74.1245 61.589 74.0008 61.3797 73.8994 61.1514C73.8043 60.9231 73.7567 60.6694 73.7567 60.3904C73.7567 60.0289 73.8391 59.715 74.004 59.4487C74.1752 59.1823 74.3972 58.9762 74.6699 58.8304C74.9489 58.6845 75.2533 58.6116 75.5831 58.6116C75.9192 58.6116 76.2236 58.6877 76.4963 58.8399C76.769 58.9857 76.9846 59.1887 77.1431 59.4487C77.308 59.7087 77.3904 60.0036 77.3904 60.3333C77.3904 60.6758 77.3112 60.9707 77.1526 61.218C76.9941 61.4653 76.8007 61.6746 76.5724 61.8458C76.3504 62.017 76.1411 62.1629 75.9446 62.2834L75.3643 62.6258C75.2121 62.7146 75.0504 62.8256 74.8792 62.9588C74.7143 63.0856 74.5748 63.2378 74.4606 63.4154C74.3465 63.5866 74.2894 63.7927 74.2894 64.0337C74.2894 64.3317 74.3813 64.5632 74.5653 64.7281C74.7555 64.893 75.0028 64.9754 75.3072 64.9754C75.5038 64.9754 75.6782 64.9437 75.8304 64.8803C75.9826 64.8169 76.1158 64.7344 76.2299 64.633C76.3504 64.5315 76.4551 64.4205 76.5438 64.3C76.639 64.1732 76.7246 64.0559 76.8007 63.9481L77.9041 62.3309H79.0551L77.7805 64.3095C77.679 64.4617 77.5585 64.633 77.419 64.8232C77.2795 65.0071 77.1114 65.1847 76.9148 65.3559C76.7182 65.5208 76.4836 65.6571 76.2109 65.7649C75.9446 65.8727 75.6306 65.9266 75.2692 65.9266ZM82.2439 65.8125V58.7257H84.8217C85.2974 58.7257 85.7159 58.8145 86.0774 58.9921C86.4389 59.1633 86.7211 59.417 86.924 59.7531C87.1333 60.0828 87.2379 60.4792 87.2379 60.9421C87.2379 61.4304 87.1142 61.849 86.8669 62.1978C86.6259 62.5466 86.2993 62.8002 85.8871 62.9588L87.5233 65.8125H86.2486L84.5078 62.721L85.2403 63.149H83.3663V65.8125H82.2439ZM83.3663 62.1502H84.8408C85.1008 62.1502 85.3259 62.0995 85.5162 61.998C85.7064 61.8965 85.8523 61.757 85.9537 61.5795C86.0615 61.3956 86.1154 61.1799 86.1154 60.9326C86.1154 60.6853 86.0615 60.4729 85.9537 60.2953C85.8523 60.1114 85.7064 59.9719 85.5162 59.8767C85.3259 59.7753 85.1008 59.7245 84.8408 59.7245H83.3663V62.1502ZM88.4678 65.8125V58.7257H93.1384V59.7245H89.5903V61.7602H92.9482V62.759H89.5903V64.8137H93.1384V65.8125H88.4678ZM96.6636 65.9266C96.2197 65.9266 95.8075 65.8442 95.427 65.6793C95.0465 65.5081 94.7231 65.2766 94.4567 64.9849C94.1904 64.6932 93.9938 64.3571 93.867 63.9766L94.8182 63.5771C94.9894 64.0146 95.2399 64.3508 95.5697 64.5854C95.8994 64.82 96.2799 64.9374 96.7112 64.9374C96.9648 64.9374 97.1868 64.8993 97.377 64.8232C97.5673 64.7408 97.7132 64.6266 97.8146 64.4808C97.9224 64.3349 97.9763 64.1668 97.9763 63.9766C97.9763 63.7166 97.9034 63.5105 97.7575 63.3583C97.6117 63.2061 97.3961 63.0856 97.1107 62.9968L95.779 62.5783C95.2463 62.4134 94.8404 62.1629 94.5614 61.8268C94.2823 61.4843 94.1428 61.0848 94.1428 60.6282C94.1428 60.2287 94.2411 59.8799 94.4377 59.5819C94.6343 59.2775 94.9038 59.0396 95.2463 58.8684C95.5951 58.6972 95.9914 58.6116 96.4353 58.6116C96.8602 58.6116 97.247 58.6877 97.5958 58.8399C97.9446 58.9857 98.2427 59.1887 98.49 59.4487C98.7437 59.7087 98.9276 60.0099 99.0417 60.3524L98.1095 60.7614C97.97 60.3872 97.7512 60.0987 97.4531 59.8958C97.1614 59.6928 96.8222 59.5914 96.4353 59.5914C96.2007 59.5914 95.9946 59.6326 95.817 59.715C95.6394 59.7911 95.4999 59.9053 95.3985 60.0575C95.3033 60.2033 95.2558 60.3746 95.2558 60.5711C95.2558 60.7994 95.3287 61.0024 95.4746 61.1799C95.6204 61.3575 95.8424 61.4907 96.1404 61.5795L97.377 61.9695C97.9415 62.1407 98.3663 62.388 98.6517 62.7114C98.9371 63.0285 99.0798 63.4249 99.0798 63.9005C99.0798 64.2937 98.9751 64.6425 98.7659 64.9469C98.5629 65.2513 98.2807 65.4922 97.9193 65.6698C97.5578 65.841 97.1392 65.9266 96.6636 65.9266ZM101.595 65.8125V59.7245H99.712V58.7257H104.563V59.7245H102.708V65.8125H101.595ZM105.403 65.8125V58.7257H107.98C108.456 58.7257 108.875 58.8145 109.236 58.9921C109.598 59.1633 109.88 59.417 110.083 59.7531C110.292 60.0828 110.397 60.4792 110.397 60.9421C110.397 61.4304 110.273 61.849 110.026 62.1978C109.785 62.5466 109.458 62.8002 109.046 62.9588L110.682 65.8125H109.407L107.667 62.721L108.399 63.149H106.525V65.8125H105.403ZM106.525 62.1502H107.999C108.259 62.1502 108.485 62.0995 108.675 61.998C108.865 61.8965 109.011 61.757 109.112 61.5795C109.22 61.3956 109.274 61.1799 109.274 60.9326C109.274 60.6853 109.22 60.4729 109.112 60.2953C109.011 60.1114 108.865 59.9719 108.675 59.8767C108.485 59.7753 108.259 59.7245 107.999 59.7245H106.525V62.1502ZM110.999 65.8125L113.491 58.7257H114.88L117.372 65.8125H116.173L115.631 64.2239H112.749L112.197 65.8125H110.999ZM113.072 63.2251H115.289L114.033 59.5153H114.347L113.072 63.2251Z" fill="white" />
        <path d="M1.75586 61.8162H12.3211" stroke="white" stroke-width="1.27483" stroke-linecap="round" stroke-linejoin="round" />
        <path d="M139.193 61.8162H149.759" stroke="white" stroke-width="1.27483" stroke-linecap="round" stroke-linejoin="round" />
        <path d="M1.2334 14.8059H50.9236" stroke="white" stroke-width="1.27483" stroke-linecap="round" stroke-linejoin="round" />
        <path d="M99.5088 14.2617H149.191" stroke="white" stroke-width="1.27483" stroke-linecap="round" stroke-linejoin="round" />
        <path d="M1.75586 27.7528V27.1107H11.0816C12.486 27.058 13.8861 27.2961 15.1941 27.81C16.5021 28.324 17.6898 29.1027 18.6826 30.0973C20.6389 32.0884 21.617 34.8262 21.617 38.3106C21.617 41.795 20.6389 44.5327 18.6826 46.5238C17.6887 47.517 16.5009 48.2947 15.1931 48.8086C13.8854 49.3224 12.4858 49.5614 11.0816 49.5105H1.75586V48.8683H3.48811C3.83157 48.8683 4.0033 48.7265 4.0033 48.4427V28.1784C4.0033 27.8947 3.83157 27.7528 3.48811 27.7528H1.75586ZM11.0816 28.1037H7.00487V48.5323H11.0816C12.1172 48.5334 13.1379 48.2858 14.0579 47.8102C14.9778 47.3347 15.7701 46.6451 16.368 45.7996C17.7866 43.9678 18.496 41.4789 18.496 38.333C18.496 35.1871 17.7866 32.6982 16.368 30.8664C15.7729 30.0158 14.982 29.3208 14.0619 28.8399C13.1419 28.3591 12.1197 28.1066 11.0816 28.1037Z" fill="white" />
        <path d="M28.2995 48.3762V28.1791C28.2995 27.8953 28.1278 27.7535 27.7844 27.7535H26.0596V27.1113H33.5262V27.7535H31.8611C31.5177 27.7535 31.3459 27.8953 31.3459 28.1791V48.3762C31.3369 48.4453 31.3442 48.5156 31.3671 48.5815C31.39 48.6473 31.428 48.7069 31.4781 48.7555C31.5281 48.8041 31.5888 48.8403 31.6553 48.8613C31.7218 48.8823 31.7923 48.8875 31.8611 48.8764H33.5859V49.5186H26.1193V48.8764H27.8441C27.9082 48.878 27.9719 48.8657 28.0309 48.8404C28.0898 48.8152 28.1427 48.7776 28.1859 48.7302C28.2291 48.6827 28.2616 48.6266 28.2812 48.5655C28.3008 48.5045 28.307 48.4399 28.2995 48.3762Z" fill="white" />
        <path d="M55.2838 49.5186L41.4781 29.6724V48.3762C41.4691 48.4453 41.4763 48.5156 41.4993 48.5815C41.5222 48.6473 41.5602 48.7069 41.6103 48.7555C41.6603 48.8041 41.721 48.8403 41.7875 48.8613C41.854 48.8823 41.9245 48.8875 41.9933 48.8764H43.7181V49.5186H37.9912V48.8764H39.716C39.7849 48.8875 39.8553 48.8823 39.9218 48.8613C39.9883 48.8403 40.049 48.8041 40.099 48.7555C40.1491 48.7069 40.1871 48.6473 40.21 48.5815C40.233 48.5156 40.2402 48.4453 40.2312 48.3762V28.1791C40.2312 27.8953 40.0595 27.7535 39.716 27.7535H37.9912V27.1113H43.3896L55.2166 44.053V28.2463C55.2166 27.9177 55.0449 27.7535 54.7014 27.7535H52.9767V27.1113H58.7409V27.7535H56.9788C56.6353 27.7535 56.4636 27.8953 56.4636 28.1791V49.5186H55.2838Z" fill="white" />
        <path d="M62.959 49.5186V48.8765H64.7136C64.7825 48.8875 64.853 48.8823 64.9195 48.8613C64.986 48.8403 65.0467 48.8041 65.0967 48.7555C65.1467 48.707 65.1847 48.6474 65.2076 48.5815C65.2306 48.5157 65.2378 48.4454 65.2288 48.3762V28.1791C65.2288 27.8953 65.0571 27.7535 64.7136 27.7535H62.959V27.1113H74.5994C75.9662 27.1641 77.3345 27.0564 78.6762 26.7903C78.4224 28.1262 78.3122 29.4853 78.3476 30.8446V32.5172H77.4964L76.9514 28.8884C76.8966 28.3906 76.5532 28.1417 75.921 28.1417H68.208V37.8483H75.5925C75.8837 37.8483 76.0554 37.6766 76.1077 37.348L76.2869 35.0931H76.9514V41.5144H76.2869L76.1077 39.2744C76.0554 38.9384 75.8837 38.7742 75.5925 38.7742H68.208V48.533H76.4213C77.0559 48.533 77.3994 48.2717 77.4516 47.7863L77.9967 43.62H78.8404V45.2477C78.7953 46.7858 78.9079 48.3245 79.1764 49.8397C77.8347 49.5736 76.4665 49.4658 75.0997 49.5186H62.959Z" fill="white" />
        <path d="M101.114 49.5186L87.3078 29.6724V48.3762C87.2975 48.4449 87.3035 48.5151 87.3255 48.5811C87.3475 48.6471 87.3847 48.7069 87.4343 48.7557C87.4838 48.8045 87.5441 48.8408 87.6104 48.8618C87.6767 48.8828 87.747 48.8878 87.8156 48.8764H89.5478V49.5186H83.8135V48.8764H85.5457C85.614 48.8862 85.6836 48.8801 85.7492 48.8585C85.8147 48.8369 85.8744 48.8005 85.9235 48.7521C85.9726 48.7037 86.0099 48.6445 86.0325 48.5793C86.055 48.5141 86.0622 48.4446 86.0535 48.3762V28.1791C86.0535 27.8953 85.8817 27.7535 85.5457 27.7535H83.8135V27.1113H89.2118L101.039 44.053V28.2463C101.039 27.9177 100.867 27.7535 100.524 27.7535H98.7989V27.1113H104.526V27.7535H102.794C102.45 27.7535 102.278 27.8953 102.278 28.1791V49.5186H101.114Z" fill="white" />
        <path d="M111.701 46.8451C109.745 44.7844 108.767 41.9396 108.767 38.3108C108.767 34.6821 109.74 31.8373 111.686 29.7765C113.72 27.7952 116.447 26.6865 119.287 26.6865C122.127 26.6865 124.854 27.7952 126.888 29.7765C128.839 31.8373 129.812 34.6821 129.807 38.3108C129.802 41.9396 128.829 44.7844 126.888 46.8451C124.857 48.8317 122.128 49.944 119.287 49.944C116.446 49.944 113.717 48.8317 111.686 46.8451H111.701ZM113.993 30.4858C112.589 32.4122 111.885 35.0205 111.88 38.3108C111.875 41.6011 112.58 44.2094 113.993 46.1358C114.561 47.0206 115.342 47.7484 116.264 48.2526C117.187 48.7567 118.221 49.0209 119.272 49.0209C120.323 49.0209 121.358 48.7567 122.28 48.2526C123.202 47.7484 123.983 47.0206 124.551 46.1358C125.975 44.2194 126.686 41.6111 126.686 38.3108C126.686 35.0106 125.977 32.4023 124.558 30.4858C123.988 29.6044 123.207 28.8797 122.284 28.378C121.362 27.8762 120.329 27.6134 119.28 27.6134C118.23 27.6134 117.197 27.8762 116.275 28.378C115.353 28.8797 114.571 29.6044 114.001 30.4858H113.993Z" fill="white" />
        <path d="M142.091 49.9446C140.392 49.9248 138.724 49.4835 137.238 48.6604C136.898 48.4653 136.526 48.3337 136.14 48.2721C135.774 48.2721 135.58 48.5185 135.55 49.0188L135.513 49.519H134.818V43.5458H135.475C135.521 44.3303 135.734 45.0962 136.098 45.7926C136.462 46.4889 136.97 47.1 137.588 47.5852C138.819 48.4647 140.302 48.9206 141.815 48.8844C142.492 48.9374 143.172 48.8508 143.815 48.6299C144.457 48.409 145.047 48.0585 145.548 47.6001C145.95 47.2138 146.27 46.7501 146.488 46.2367C146.706 45.7234 146.818 45.1712 146.817 44.6135C146.817 42.7692 145.72 41.3655 143.509 40.4173L139.142 38.5357C137.94 38.068 136.901 37.2581 136.155 36.2061C135.507 35.2718 135.161 34.162 135.162 33.0253C135.149 32.1965 135.301 31.3734 135.61 30.6041C135.919 29.8349 136.379 29.135 136.961 28.5454C138.161 27.296 139.888 26.6738 142.143 26.6787C143.592 26.717 145.001 27.1592 146.212 27.9555C146.501 28.1496 146.826 28.2842 147.168 28.3513C147.489 28.3513 147.661 28.0974 147.683 27.6046L147.721 26.8579H148.415V33.0104H147.758C147.7 31.4817 147.05 30.0354 145.944 28.9785C144.901 28.1011 143.572 27.6385 142.21 27.6793C140.974 27.6024 139.758 28.0186 138.828 28.8366C138.458 29.168 138.161 29.5729 137.957 30.0255C137.753 30.478 137.645 30.9683 137.641 31.4648C137.627 32.413 137.915 33.3411 138.462 34.1155C139.084 34.9511 139.931 35.5932 140.904 35.9672L145.309 37.8488C146.622 38.3709 147.77 39.2376 148.632 40.3575C149.354 41.3149 149.747 42.4807 149.752 43.6802C149.75 44.5189 149.561 45.3467 149.199 46.1035C148.838 46.8603 148.312 47.5271 147.661 48.0556C146.105 49.3589 144.118 50.0328 142.091 49.9446Z" fill="white" />
        <path d="M61.7793 18.5918H89.7342" stroke="white" stroke-width="0.789487" stroke-linecap="round" stroke-linejoin="round" />
        <path d="M89.0783 15.9864C89.0783 12.4536 87.6749 9.06553 85.1768 6.56747C82.6788 4.06941 79.2907 2.66602 75.7579 2.66602C72.2251 2.66602 68.837 4.06941 66.339 6.56747C63.8409 9.06553 62.4375 12.4536 62.4375 15.9864H89.0783Z" fill="white" />
        <path d="M76.6615 3.90542H74.8322C74.5035 3.90542 74.1882 3.77484 73.9558 3.54239C73.7234 3.30995 73.5928 2.99469 73.5928 2.66597C73.5947 2.33785 73.7259 2.02373 73.958 1.79171C74.19 1.55969 74.5041 1.42847 74.8322 1.42651H76.6615C76.9897 1.42847 77.3038 1.55969 77.5358 1.79171C77.7678 2.02373 77.899 2.33785 77.901 2.66597C77.901 2.99469 77.7704 3.30995 77.538 3.54239C77.3055 3.77484 76.9903 3.90542 76.6615 3.90542Z" fill="white" />
        <path d="M76.1681 1.09759H75.3468C75.2016 1.09563 75.0629 1.03655 74.9609 0.933141C74.8589 0.829734 74.8017 0.690316 74.8018 0.545061C74.8018 0.400502 74.8592 0.261864 74.9614 0.159645C75.0636 0.0574259 75.2023 0 75.3468 0L76.1681 0C76.3127 0 76.4513 0.0574259 76.5536 0.159645C76.6558 0.261864 76.7132 0.400502 76.7132 0.545061C76.7132 0.690316 76.656 0.829734 76.554 0.933141C76.452 1.03655 76.3134 1.09563 76.1681 1.09759Z" fill="white" />
    </g>
    <defs>
        <clipPath id="clip0_276_2066">
            <rect width="149.996" height="67.61" fill="white" transform="translate(0.501953)" />
        </clipPath>
    </defs>
</svg>
