<svg width="171" height="77" viewBox="0 0 171 77" fill="none" xmlns="http://www.w3.org/2000/svg">
    <g clip-path="url(#clip0_243_1364)">
        <path d="M19.8878 74.2578V66.2259H25.1166V67.358H21.1599V69.7729H24.6853V70.9049H21.1599V74.2578H19.8878ZM24.9352 74.2578L27.7598 66.2259H29.3339L32.1585 74.2578H30.8001L30.1856 72.4574H26.9189L26.2936 74.2578H24.9352ZM27.2855 71.3254H29.7975L28.3744 67.1208H28.7301L27.2855 71.3254ZM35.8199 74.3872C35.3168 74.3872 34.8496 74.2937 34.4184 74.1069C33.9871 73.9128 33.6206 73.6505 33.3187 73.3199C33.0169 72.9892 32.794 72.6083 32.6503 72.1771L33.7284 71.7243C33.9225 72.2202 34.2064 72.6011 34.5801 72.8671C34.9538 73.133 35.3851 73.266 35.8738 73.266C36.1613 73.266 36.4129 73.2228 36.6285 73.1366C36.8441 73.0432 37.0094 72.9138 37.1244 72.7485C37.2466 72.5832 37.3077 72.3927 37.3077 72.1771C37.3077 71.8824 37.225 71.6488 37.0597 71.4763C36.8944 71.3038 36.6501 71.1673 36.3266 71.0666L34.8173 70.5923C34.2135 70.4054 33.7536 70.1215 33.4373 69.7406C33.1211 69.3524 32.9629 68.8996 32.9629 68.3822C32.9629 67.9294 33.0744 67.534 33.2972 67.1962C33.52 66.8512 33.8254 66.5817 34.2135 66.3877C34.6089 66.1936 35.0581 66.0966 35.5612 66.0966C36.0427 66.0966 36.4812 66.1828 36.8765 66.3553C37.2718 66.5206 37.6096 66.7506 37.8899 67.0453C38.1774 67.34 38.3858 67.6814 38.5152 68.0695L37.4586 68.5331C37.3005 68.109 37.0526 67.782 36.7147 67.552C36.3841 67.322 35.9996 67.207 35.5612 67.207C35.2952 67.207 35.0617 67.2537 34.8604 67.3472C34.6592 67.4334 34.501 67.5628 34.386 67.7353C34.2782 67.9006 34.2243 68.0947 34.2243 68.3175C34.2243 68.5762 34.307 68.8062 34.4723 69.0075C34.6376 69.2087 34.8892 69.3596 35.227 69.4603L36.6285 69.9023C37.2682 70.0963 37.7497 70.3766 38.0732 70.7432C38.3966 71.1026 38.5583 71.5518 38.5583 72.0908C38.5583 72.5364 38.4397 72.9317 38.2025 73.2767C37.9725 73.6217 37.6527 73.8949 37.243 74.0961C36.8333 74.2902 36.359 74.3872 35.8199 74.3872ZM41.4095 74.2578V67.358H39.2748V66.2259H44.7731V67.358H42.6708V74.2578H41.4095ZM47.6089 74.2578V66.2259H52.8377V67.358H48.881V69.7729H52.4064V70.9049H48.881V74.2578H47.6089ZM57.7023 74.3872C57.1201 74.3872 56.5775 74.283 56.0743 74.0745C55.5784 73.8661 55.14 73.575 54.7591 73.2013C54.3853 72.8275 54.0906 72.3891 53.875 71.886C53.6666 71.3829 53.5624 70.833 53.5624 70.2365C53.5624 69.6399 53.6666 69.0901 53.875 68.587C54.0906 68.0767 54.3853 67.6383 54.7591 67.2717C55.1328 66.898 55.5712 66.6105 56.0743 66.4092C56.5775 66.2008 57.1201 66.0966 57.7023 66.0966C58.2916 66.0966 58.8343 66.2008 59.3302 66.4092C59.8333 66.6105 60.2718 66.898 60.6455 67.2717C61.0264 67.6455 61.3211 68.0839 61.5295 68.587C61.738 69.0901 61.8422 69.6399 61.8422 70.2365C61.8422 70.833 61.7344 71.3829 61.5188 71.886C61.3103 72.3891 61.0192 72.8275 60.6455 73.2013C60.2718 73.575 59.8333 73.8661 59.3302 74.0745C58.8271 74.283 58.2845 74.3872 57.7023 74.3872ZM57.7023 73.2228C58.1191 73.2228 58.5001 73.1474 58.8451 72.9964C59.1973 72.8455 59.5027 72.6371 59.7615 72.3711C60.0202 72.098 60.2214 71.7818 60.3652 71.4224C60.5089 71.0558 60.5808 70.6605 60.5808 70.2365C60.5808 69.8124 60.5089 69.4207 60.3652 69.0614C60.2214 68.702 60.0202 68.3857 59.7615 68.1126C59.5027 67.8395 59.1973 67.6275 58.8451 67.4765C58.5001 67.3256 58.1191 67.2501 57.7023 67.2501C57.2854 67.2501 56.9009 67.3256 56.5487 67.4765C56.2037 67.6275 55.9019 67.8395 55.6431 68.1126C55.3844 68.3857 55.1831 68.702 55.0394 69.0614C54.9028 69.4207 54.8345 69.8124 54.8345 70.2365C54.8345 70.6605 54.9028 71.0558 55.0394 71.4224C55.1831 71.7818 55.3844 72.098 55.6431 72.3711C55.9019 72.6371 56.2073 72.8455 56.5595 72.9964C56.9117 73.1474 57.2926 73.2228 57.7023 73.2228ZM67.1673 74.3872C66.5851 74.3872 66.0424 74.283 65.5393 74.0745C65.0434 73.8661 64.605 73.575 64.224 73.2013C63.8503 72.8275 63.5556 72.3891 63.34 71.886C63.1316 71.3829 63.0274 70.833 63.0274 70.2365C63.0274 69.6399 63.1316 69.0901 63.34 68.587C63.5556 68.0767 63.8503 67.6383 64.224 67.2717C64.5978 66.898 65.0362 66.6105 65.5393 66.4092C66.0424 66.2008 66.5851 66.0966 67.1673 66.0966C67.7566 66.0966 68.2993 66.2008 68.7952 66.4092C69.2983 66.6105 69.7367 66.898 70.1105 67.2717C70.4914 67.6455 70.7861 68.0839 70.9945 68.587C71.203 69.0901 71.3072 69.6399 71.3072 70.2365C71.3072 70.833 71.1994 71.3829 70.9837 71.886C70.7753 72.3891 70.4842 72.8275 70.1105 73.2013C69.7367 73.575 69.2983 73.8661 68.7952 74.0745C68.2921 74.283 67.7494 74.3872 67.1673 74.3872ZM67.1673 73.2228C67.5841 73.2228 67.9651 73.1474 68.3101 72.9964C68.6622 72.8455 68.9677 72.6371 69.2264 72.3711C69.4852 72.098 69.6864 71.7818 69.8302 71.4224C69.9739 71.0558 70.0458 70.6605 70.0458 70.2365C70.0458 69.8124 69.9739 69.4207 69.8302 69.0614C69.6864 68.702 69.4852 68.3857 69.2264 68.1126C68.9677 67.8395 68.6622 67.6275 68.3101 67.4765C67.9651 67.3256 67.5841 67.2501 67.1673 67.2501C66.7504 67.2501 66.3659 67.3256 66.0137 67.4765C65.6687 67.6275 65.3668 67.8395 65.1081 68.1126C64.8493 68.3857 64.6481 68.702 64.5044 69.0614C64.3678 69.4207 64.2995 69.8124 64.2995 70.2365C64.2995 70.6605 64.3678 71.0558 64.5044 71.4224C64.6481 71.7818 64.8493 72.098 65.1081 72.3711C65.3668 72.6371 65.6723 72.8455 66.0245 72.9964C66.3767 73.1474 66.7576 73.2228 67.1673 73.2228ZM72.7295 74.2578V66.2259H75.3601C76.1938 66.2259 76.9161 66.3949 77.5271 66.7327C78.1452 67.0633 78.6231 67.5305 78.9609 68.1342C79.2988 68.7379 79.4677 69.4387 79.4677 70.2365C79.4677 71.0271 79.2988 71.7279 78.9609 72.3388C78.6231 72.9425 78.1452 73.4133 77.5271 73.7511C76.9161 74.0889 76.1938 74.2578 75.3601 74.2578H72.7295ZM74.0017 73.1258H75.3816C75.9494 73.1258 76.4418 73.0072 76.8586 72.77C77.2827 72.5328 77.6097 72.1986 77.8397 71.7674C78.0697 71.3362 78.1847 70.8259 78.1847 70.2365C78.1847 69.6471 78.0661 69.1404 77.8289 68.7164C77.5989 68.2851 77.2755 67.9509 76.8586 67.7137C76.4418 67.4765 75.9494 67.358 75.3816 67.358H74.0017V73.1258ZM84.9338 74.3872C84.4594 74.3872 84.0426 74.3009 83.6832 74.1284C83.3238 73.9488 83.0399 73.7008 82.8315 73.3845C82.6303 73.0611 82.5296 72.6874 82.5296 72.2633C82.5296 71.904 82.5943 71.5913 82.7237 71.3254C82.8531 71.0523 83.0148 70.8223 83.2088 70.6354C83.4029 70.4413 83.597 70.2796 83.791 70.1502C83.9851 70.0209 84.1468 69.9202 84.2762 69.8484L84.9338 69.4818C85.1494 69.3596 85.3543 69.2303 85.5483 69.0937C85.7424 68.9571 85.9005 68.8026 86.0227 68.6301C86.1449 68.4576 86.206 68.2636 86.206 68.0479C86.206 67.7892 86.1197 67.5736 85.9472 67.4011C85.7747 67.2214 85.5591 67.1316 85.3004 67.1316C85.0416 67.1316 84.826 67.2178 84.6535 67.3903C84.481 67.5628 84.3947 67.7856 84.3947 68.0587C84.3947 68.2456 84.4379 68.4289 84.5241 68.6086C84.6176 68.7882 84.7254 68.9571 84.8476 69.1153C84.9769 69.2662 85.1027 69.4099 85.2249 69.5465L89.5373 74.2578H88.0172L84.3193 70.2796C84.1468 70.0927 83.9743 69.8951 83.8018 69.6867C83.6365 69.471 83.4963 69.2339 83.3813 68.9751C83.2735 68.7164 83.2196 68.4289 83.2196 68.1126C83.2196 67.7029 83.3131 67.3472 83.4999 67.0453C83.694 66.7434 83.9455 66.5098 84.2546 66.3445C84.5708 66.1792 84.9158 66.0966 85.2896 66.0966C85.6705 66.0966 86.0155 66.1828 86.3246 66.3553C86.6336 66.5206 86.878 66.7506 87.0577 67.0453C87.2445 67.34 87.338 67.6742 87.338 68.0479C87.338 68.4361 87.2481 68.7703 87.0684 69.0506C86.8888 69.3309 86.6695 69.5681 86.4108 69.7621C86.1592 69.9562 85.9221 70.1215 85.6993 70.2581L85.0416 70.6462C84.8691 70.7468 84.6858 70.8726 84.4918 71.0235C84.3049 71.1673 84.1468 71.3397 84.0174 71.541C83.888 71.7351 83.8234 71.9686 83.8234 72.2418C83.8234 72.5796 83.9276 72.8419 84.136 73.0288C84.3516 73.2156 84.6319 73.3091 84.9769 73.3091C85.1997 73.3091 85.3974 73.2731 85.5699 73.2013C85.7424 73.1294 85.8933 73.036 86.0227 72.921C86.1592 72.806 86.2778 72.6802 86.3785 72.5436C86.4863 72.3999 86.5833 72.2669 86.6695 72.1447L87.9201 70.312H89.2246L87.78 72.5544C87.665 72.7269 87.5284 72.921 87.3703 73.1366C87.2122 73.345 87.0217 73.5463 86.7989 73.7403C86.5761 73.9272 86.3102 74.0817 86.0011 74.2039C85.6993 74.3261 85.3435 74.3872 84.9338 74.3872ZM92.8387 74.2578V66.2259H95.7603C96.2994 66.2259 96.7737 66.3266 97.1834 66.5278C97.5931 66.7219 97.9129 67.0094 98.1429 67.3903C98.3801 67.764 98.4987 68.2133 98.4987 68.7379C98.4987 69.2914 98.3585 69.7657 98.0782 70.161C97.8051 70.5563 97.435 70.8438 96.9678 71.0235L98.8221 74.2578H97.3775L95.4045 70.754L96.2347 71.2391H94.1108V74.2578H92.8387ZM94.1108 70.1071H95.7819C96.0766 70.1071 96.3317 70.0496 96.5473 69.9346C96.7629 69.8196 96.9283 69.6615 97.0433 69.4603C97.1654 69.2518 97.2265 69.0075 97.2265 68.7271C97.2265 68.4468 97.1654 68.2061 97.0433 68.0048C96.9283 67.7964 96.7629 67.6383 96.5473 67.5305C96.3317 67.4155 96.0766 67.358 95.7819 67.358H94.1108V70.1071ZM99.8926 74.2578V66.2259H105.186V67.358H101.165V69.6651H104.971V70.7971H101.165V73.1258H105.186V74.2578H99.8926ZM109.181 74.3872C108.678 74.3872 108.211 74.2937 107.78 74.1069C107.349 73.9128 106.982 73.6505 106.68 73.3199C106.378 72.9892 106.156 72.6083 106.012 72.1771L107.09 71.7243C107.284 72.2202 107.568 72.6011 107.942 72.8671C108.315 73.133 108.747 73.266 109.235 73.266C109.523 73.266 109.774 73.2228 109.99 73.1366C110.206 73.0432 110.371 72.9138 110.486 72.7485C110.608 72.5832 110.669 72.3927 110.669 72.1771C110.669 71.8824 110.587 71.6488 110.421 71.4763C110.256 71.3038 110.012 71.1673 109.688 71.0666L108.179 70.5923C107.575 70.4054 107.115 70.1215 106.799 69.7406C106.483 69.3524 106.324 68.8996 106.324 68.3822C106.324 67.9294 106.436 67.534 106.659 67.1962C106.881 66.8512 107.187 66.5817 107.575 66.3877C107.97 66.1936 108.42 66.0966 108.923 66.0966C109.404 66.0966 109.843 66.1828 110.238 66.3553C110.633 66.5206 110.971 66.7506 111.251 67.0453C111.539 67.34 111.747 67.6814 111.877 68.0695L110.82 68.5331C110.662 68.109 110.414 67.782 110.076 67.552C109.746 67.322 109.361 67.207 108.923 67.207C108.657 67.207 108.423 67.2537 108.222 67.3472C108.021 67.4334 107.863 67.5628 107.748 67.7353C107.64 67.9006 107.586 68.0947 107.586 68.3175C107.586 68.5762 107.668 68.8062 107.834 69.0075C107.999 69.2087 108.251 69.3596 108.588 69.4603L109.99 69.9023C110.63 70.0963 111.111 70.3766 111.435 70.7432C111.758 71.1026 111.92 71.5518 111.92 72.0908C111.92 72.5364 111.801 72.9317 111.564 73.2767C111.334 73.6217 111.014 73.8949 110.605 74.0961C110.195 74.2902 109.72 74.3872 109.181 74.3872ZM114.771 74.2578V67.358H112.636V66.2259H118.135V67.358H116.032V74.2578H114.771ZM119.086 74.2578V66.2259H122.007C122.547 66.2259 123.021 66.3266 123.431 66.5278C123.84 66.7219 124.16 67.0094 124.39 67.3903C124.627 67.764 124.746 68.2133 124.746 68.7379C124.746 69.2914 124.606 69.7657 124.325 70.161C124.052 70.5563 123.682 70.8438 123.215 71.0235L125.069 74.2578H123.625L121.652 70.754L122.482 71.2391H120.358V74.2578H119.086ZM120.358 70.1071H122.029C122.324 70.1071 122.579 70.0496 122.794 69.9346C123.01 69.8196 123.175 69.6615 123.29 69.4603C123.413 69.2518 123.474 69.0075 123.474 68.7271C123.474 68.4468 123.413 68.2061 123.29 68.0048C123.175 67.7964 123.01 67.6383 122.794 67.5305C122.579 67.4155 122.324 67.358 122.029 67.358H120.358V70.1071ZM125.428 74.2578L128.253 66.2259H129.827L132.652 74.2578H131.293L130.679 72.4574H127.412L126.787 74.2578H125.428ZM127.779 71.3254H130.29L128.867 67.1208H129.223L127.779 71.3254Z" fill="#111111" />
        <path d="M1.61719 70.0615H13.5914" stroke="#111111" stroke-width="1.66708" stroke-linecap="round" stroke-linejoin="round" />
        <path d="M157.383 70.0615H169.357" stroke="#111111" stroke-width="1.66708" stroke-linecap="round" stroke-linejoin="round" />
        <path d="M1.02441 16.7827H57.3413" stroke="#111111" stroke-width="1.66708" stroke-linecap="round" stroke-linejoin="round" />
        <path d="M112.406 16.165H168.715" stroke="#111111" stroke-width="1.66708" stroke-linecap="round" stroke-linejoin="round" />
        <path d="M1.61719 31.4566V30.7288H12.1867C13.7783 30.6691 15.3651 30.939 16.8476 31.5214C18.33 32.1039 19.6761 32.9865 20.8013 34.1138C23.0185 36.3704 24.127 39.4733 24.127 43.4223C24.127 47.3714 23.0185 50.4743 20.8013 52.7309C19.6749 53.8565 18.3286 54.738 16.8464 55.3204C15.3643 55.9028 13.7781 56.1735 12.1867 56.1159H1.61719V55.3881H3.58045C3.96972 55.3881 4.16435 55.2273 4.16435 54.9057V31.9389C4.16435 31.6174 3.96972 31.4566 3.58045 31.4566H1.61719ZM12.1867 31.8543H7.56621V55.0073H12.1867C13.3603 55.0085 14.5172 54.7279 15.5598 54.1889C16.6024 53.6499 17.5003 52.8684 18.178 51.9101C19.7858 49.834 20.5898 47.0132 20.5898 43.4477C20.5898 39.8823 19.7858 37.0615 18.178 34.9854C17.5036 34.0213 16.6072 33.2336 15.5644 32.6887C14.5217 32.1438 13.3632 31.8576 12.1867 31.8543Z" fill="#111111" />
        <path d="M31.7008 54.8293V31.9386C31.7008 31.6171 31.5062 31.4563 31.1169 31.4563H29.1621V30.7285H37.6245V31.4563H35.7373C35.3481 31.4563 35.1534 31.6171 35.1534 31.9386V54.8293C35.1432 54.9076 35.1514 54.9873 35.1775 55.062C35.2035 55.1366 35.2465 55.2041 35.3032 55.2592C35.3599 55.3142 35.4287 55.3553 35.5041 55.3791C35.5794 55.4029 35.6593 55.4088 35.7373 55.3962H37.6922V56.124H29.2298V55.3962H31.1846C31.2573 55.398 31.3295 55.384 31.3963 55.3554C31.4631 55.3268 31.5231 55.2842 31.572 55.2305C31.6209 55.1767 31.6578 55.1131 31.68 55.0439C31.7022 54.9746 31.7093 54.9015 31.7008 54.8293Z" fill="#111111" />
        <path d="M62.2834 56.124L46.6365 33.6311V54.8293C46.6263 54.9076 46.6345 54.9873 46.6605 55.062C46.6865 55.1366 46.7296 55.2041 46.7863 55.2592C46.843 55.3142 46.9117 55.3553 46.9871 55.3791C47.0625 55.4029 47.1423 55.4088 47.2204 55.3962H49.1752V56.124H42.6846V55.3962H44.6394C44.7174 55.4088 44.7973 55.4029 44.8727 55.3791C44.948 55.3553 45.0168 55.3142 45.0735 55.2592C45.1302 55.2041 45.1733 55.1366 45.1993 55.062C45.2253 54.9873 45.2335 54.9076 45.2233 54.8293V31.9386C45.2233 31.6171 45.0286 31.4563 44.6394 31.4563H42.6846V30.7285H48.8028L62.2072 49.9296V32.0148C62.2072 31.6424 62.0126 31.4563 61.6233 31.4563H59.6685V30.7285H66.2014V31.4563H64.2043C63.815 31.4563 63.6204 31.6171 63.6204 31.9386V56.124H62.2834Z" fill="#111111" />
        <path d="M70.9824 56.1241V55.3964H72.9711C73.0491 55.4089 73.129 55.403 73.2044 55.3792C73.2797 55.3554 73.3485 55.3144 73.4052 55.2593C73.4619 55.2042 73.505 55.1367 73.531 55.0621C73.557 54.9874 73.5652 54.9078 73.555 54.8294V31.9387C73.555 31.6172 73.3603 31.4564 72.9711 31.4564H70.9824V30.7286H84.1752C85.7243 30.7885 87.275 30.6663 88.7956 30.3647C88.508 31.8788 88.3832 33.4192 88.4233 34.9598V36.8554H87.4586L86.8408 32.7427C86.7788 32.1785 86.3895 31.8964 85.673 31.8964H76.9314V42.8975H85.3007C85.6307 42.8975 85.8254 42.7028 85.8846 42.3305L86.0877 39.7749H86.8408V47.0525H86.0877L85.8846 44.5138C85.8254 44.133 85.6307 43.9468 85.3007 43.9468H76.9314V55.0071H86.24C86.9593 55.0071 87.3486 54.7109 87.4078 54.1609L88.0256 49.4389H88.9818V51.2837C88.9307 53.0269 89.0583 54.7708 89.3626 56.488C87.842 56.1864 86.2913 56.0643 84.7422 56.1241H70.9824Z" fill="#111111" />
        <path d="M114.225 56.124L98.5785 33.6311V54.8293C98.5668 54.9072 98.5737 54.9868 98.5986 55.0615C98.6235 55.1363 98.6657 55.2041 98.7218 55.2593C98.7779 55.3146 98.8464 55.3559 98.9215 55.3797C98.9966 55.4035 99.0763 55.4091 99.154 55.3962H101.117V56.124H94.6182V55.3962H96.5814C96.6588 55.4073 96.7377 55.4003 96.812 55.3759C96.8863 55.3514 96.9539 55.3102 97.0096 55.2553C97.0653 55.2004 97.1075 55.1334 97.1331 55.0595C97.1586 54.9856 97.1668 54.9068 97.1569 54.8293V31.9386C97.1569 31.6171 96.9622 31.4563 96.5814 31.4563H94.6182V30.7285H100.736L114.141 49.9296V32.0148C114.141 31.6424 113.946 31.4563 113.557 31.4563H111.602V30.7285H118.093V31.4563H116.129C115.74 31.4563 115.546 31.6171 115.546 31.9386V56.124H114.225Z" fill="#111111" />
        <path d="M126.225 53.0945C124.008 50.7589 122.899 47.5348 122.899 43.4221C122.899 39.3094 124.002 36.0852 126.208 33.7496C128.514 31.5041 131.605 30.2476 134.823 30.2476C138.041 30.2476 141.132 31.5041 143.438 33.7496C145.649 36.0852 146.752 39.3094 146.746 43.4221C146.741 47.5348 145.638 50.7589 143.438 53.0945C141.135 55.346 138.043 56.6067 134.823 56.6067C131.603 56.6067 128.51 55.346 126.208 53.0945H126.225ZM128.823 34.5535C127.232 36.7368 126.434 39.693 126.428 43.4221C126.423 47.1512 127.221 50.1073 128.823 52.2906C129.466 53.2934 130.351 54.1183 131.397 54.6897C132.442 55.261 133.615 55.5605 134.806 55.5605C135.997 55.5605 137.17 55.261 138.215 54.6897C139.26 54.1183 140.145 53.2934 140.789 52.2906C142.402 50.1186 143.209 47.1624 143.209 43.4221C143.209 39.6817 142.405 36.7255 140.797 34.5535C140.151 33.5545 139.265 32.7332 138.22 32.1646C137.175 31.5959 136.004 31.298 134.814 31.298C133.625 31.298 132.454 31.5959 131.409 32.1646C130.364 32.7332 129.478 33.5545 128.832 34.5535H128.823Z" fill="#111111" />
        <path d="M160.666 56.6065C158.74 56.584 156.85 56.0839 155.166 55.151C154.781 54.9299 154.36 54.7808 153.922 54.7109C153.507 54.7109 153.287 54.9902 153.253 55.5572L153.211 56.1241H152.424V49.3543H153.169C153.221 50.2435 153.461 51.1114 153.874 51.9007C154.287 52.6899 154.863 53.3825 155.563 53.9324C156.958 54.9291 158.639 55.4459 160.353 55.4048C161.12 55.465 161.892 55.3668 162.62 55.1164C163.348 54.866 164.016 54.4688 164.584 53.9493C165.04 53.5115 165.403 52.9859 165.65 52.4041C165.897 51.8223 166.024 51.1965 166.023 50.5644C166.023 48.4742 164.779 46.8833 162.274 45.8085L157.324 43.676C155.961 43.146 154.784 42.228 153.939 41.0358C153.205 39.9769 152.812 38.7191 152.813 37.4308C152.798 36.4914 152.971 35.5585 153.321 34.6867C153.672 33.8149 154.192 33.0216 154.853 32.3534C156.212 30.9374 158.17 30.2322 160.725 30.2378C162.367 30.2812 163.965 30.7824 165.337 31.6849C165.665 31.9049 166.033 32.0573 166.421 32.1334C166.784 32.1334 166.979 31.8457 167.004 31.2872L167.047 30.4409H167.834V37.4139H167.089C167.024 35.6813 166.286 34.0422 165.033 32.8442C163.851 31.8498 162.345 31.3256 160.802 31.3718C159.401 31.2847 158.022 31.7564 156.968 32.6834C156.549 33.059 156.213 33.5179 155.981 34.0309C155.749 34.5438 155.627 35.0994 155.623 35.6622C155.607 36.7368 155.933 37.7887 156.553 38.6663C157.259 39.6134 158.218 40.3411 159.321 40.765L164.313 42.8975C165.802 43.4893 167.103 44.4716 168.079 45.7408C168.898 46.8258 169.344 48.1471 169.349 49.5066C169.346 50.4572 169.132 51.3953 168.723 52.2531C168.313 53.1108 167.717 53.8665 166.979 54.4655C165.216 55.9426 162.964 56.7064 160.666 56.6065Z" fill="#111111" />
        <path d="M69.6455 21.0732H101.329" stroke="#111111" stroke-width="1.03241" stroke-linecap="round" stroke-linejoin="round" />
        <path d="M100.584 18.1198C100.584 14.1158 98.9937 10.2759 96.1625 7.44471C93.3313 4.6135 89.4914 3.02295 85.4874 3.02295C81.4835 3.02295 77.6436 4.6135 74.8124 7.44471C71.9812 10.2759 70.3906 14.1158 70.3906 18.1198H100.584Z" fill="#111111" />
        <path d="M86.5112 4.42766H84.438C84.0654 4.42766 83.7081 4.27966 83.4446 4.01622C83.1812 3.75278 83.0332 3.39548 83.0332 3.02291C83.0354 2.65104 83.1841 2.29502 83.4471 2.03206C83.7101 1.7691 84.0661 1.62038 84.438 1.61816H86.5112C86.8831 1.62038 87.2391 1.7691 87.5021 2.03206C87.765 2.29502 87.9138 2.65104 87.916 3.02291C87.916 3.39548 87.768 3.75278 87.5045 4.01622C87.2411 4.27966 86.8838 4.42766 86.5112 4.42766Z" fill="#111111" />
        <path d="M85.9529 1.24592H85.022C84.8574 1.24369 84.7003 1.17674 84.5847 1.05954C84.4691 0.942341 84.4043 0.78433 84.4043 0.619704C84.4043 0.455866 84.4694 0.298739 84.5852 0.182888C84.7011 0.0670374 84.8582 0.00195313 85.022 0.00195313L85.9529 0.00195312C86.1167 0.00195313 86.2739 0.0670374 86.3897 0.182888C86.5056 0.298739 86.5707 0.455866 86.5707 0.619704C86.5707 0.78433 86.5059 0.942341 86.3902 1.05954C86.2746 1.17674 86.1175 1.24369 85.9529 1.24592Z" fill="#111111" />
    </g>
    <defs>
        <clipPath id="clip0_243_1364">
            <rect width="170" height="76.6265" fill="white" transform="translate(0.195312 0.00195312)" />
        </clipPath>
    </defs>
</svg>
