<svg width="16" height="15" viewBox="0 0 16 15" fill="none" xmlns="http://www.w3.org/2000/svg">
    <path d="M10.8008 2.78174L14.7383 6.71924C14.8294 6.81038 14.875 6.90153 14.875 6.99268C14.875 7.10205 14.8294 7.20231 14.7383 7.29346L10.8008 11.231C10.6003 11.4132 10.3997 11.4132 10.1992 11.231C10.0169 11.0304 10.0169 10.8299 10.1992 10.6294L13.3711 7.43018H1.3125C1.03906 7.39372 0.893229 7.257 0.875 7.02002C0.893229 6.74658 1.03906 6.60075 1.3125 6.58252H13.3711L10.1992 3.3833C10.0169 3.18278 10.0169 2.98226 10.1992 2.78174C10.3997 2.59945 10.6003 2.59945 10.8008 2.78174Z" fill="#111111" />
</svg>
