<svg width="16" height="17" viewBox="0 0 16 17" fill="none" xmlns="http://www.w3.org/2000/svg">
    <path d="M12.3659 1.83325H6.30205C5.03318 1.83325 4.00065 2.86579 4.00065 4.13465V4.49992H3.63538C2.36652 4.49992 1.33398 5.53245 1.33398 6.80132V12.8651C1.33398 14.1341 2.36652 15.1666 3.63538 15.1666H9.69918C10.8649 15.1666 11.8207 14.2921 11.9701 13.1666H12.3659C13.6348 13.1666 14.6673 12.1341 14.6673 10.8652V4.13465C14.6673 2.86579 13.6348 1.83325 12.3659 1.83325ZM13.334 10.8652C13.334 11.399 12.8997 11.8333 12.3659 11.8333H12.0007V6.80132C12.0007 5.53245 10.9681 4.49992 9.69925 4.49992H5.33398V4.13465C5.33398 3.60085 5.76825 3.16659 6.30205 3.16659H12.3659C12.8997 3.16659 13.334 3.60085 13.334 4.13465V10.8652Z" fill="#DD5903" />
</svg>
