<svg width="80" height="80" viewBox="0 0 80 80" fill="none" xmlns="http://www.w3.org/2000/svg">
    <g clip-path="url(#clip0_84_2426)">
        <g filter="url(#filter0_di_84_2426)">
            <path d="M0 40C0 62.0915 17.9085 80 40 80C47.4318 80 54.3909 77.9734 60.353 74.4416C64.2459 76.1984 68.4197 77.3405 72.6656 77.799C74.0815 77.9511 75.1364 76.525 74.5857 75.2115C73.2742 72.0895 72.197 68.0556 71.6472 64.467C76.8841 57.7036 80 49.2149 80 40C80 17.9085 62.0915 0 40 0C17.9085 0 0 17.9085 0 40Z" fill="url(#paint0_linear_84_2426)" />
        </g>
        <path d="M67.1437 34.7133C67.0514 33.7305 66.6346 32.846 66.0017 32.1644V27.5635C66.0017 26.9955 65.5412 26.535 64.9731 26.535C64.6891 26.535 64.4325 26.6507 64.2459 26.8363C64.0603 27.0219 63.9446 27.2795 63.9446 27.5635V30.9249C63.7103 30.862 63.4679 30.8174 63.2194 30.7941C63.1535 30.788 63.0865 30.7819 63.0196 30.7758C62.4759 27.6548 59.9016 25.2438 56.7005 24.9446C53.0571 24.6038 47.5556 24.2681 40.001 24.2681C32.4465 24.2681 27.1133 24.6261 23.335 24.9791C20.143 25.2763 17.5718 27.667 17.0129 30.7728C16.9348 30.7799 16.8577 30.787 16.7816 30.7941C16.5331 30.8174 16.2907 30.862 16.0564 30.9249V27.5635C16.0564 27.2795 15.9408 27.0219 15.7552 26.8363C15.5685 26.6507 15.3109 26.535 15.0279 26.535C14.4599 26.535 13.9994 26.9955 13.9994 27.5635V32.1644C13.3665 32.846 12.9486 33.7305 12.8573 34.7133C12.7275 36.0958 12.624 37.8699 12.624 40.0009C12.624 42.1319 12.7184 43.9364 12.8391 45.2824C13.0267 47.3708 14.6729 49.0312 16.7603 49.226C16.8344 49.2331 16.9094 49.2402 16.9855 49.2463C17.5444 52.3541 20.1055 54.7559 23.2996 55.0552C26.9429 55.396 32.4445 55.7307 40 55.7307C47.5556 55.7307 52.8948 55.3726 56.6731 55.0197C59.853 54.7225 62.4161 52.3419 62.9831 49.2493C63.0703 49.2412 63.1555 49.2341 63.2397 49.226C65.3271 49.0312 66.9734 47.3698 67.161 45.2824C67.2817 43.9364 67.376 42.1857 67.376 40.0009C67.376 37.8161 67.2726 36.0958 67.1427 34.7133H67.1437ZM59.7891 48.3202C59.6197 50.1317 58.1804 51.57 56.3668 51.7394C52.9618 52.0569 47.3578 52.4362 40 52.4362C33.902 52.4362 28.2331 52.208 23.6069 51.7749C21.7872 51.6045 20.3469 50.153 20.1826 48.3232C19.9574 45.827 19.8438 43.0266 19.8438 39.9999C19.8438 36.9732 19.9676 34.2762 20.21 31.6796C20.3794 29.868 21.8227 28.4297 23.6404 28.2593C27.0433 27.9419 32.6453 27.5625 39.999 27.5625C47.3527 27.5625 53.1667 27.9226 56.3911 28.2238C58.2098 28.3942 59.6501 29.8356 59.8144 31.6522C60.0406 34.1555 60.1552 36.9641 60.1552 39.9999C60.1552 43.0357 60.0315 45.7205 59.7891 48.3192V48.3202Z" fill="white" />
        <path d="M28.5962 34.8645H28.5952C27.0082 34.8645 25.7217 36.151 25.7217 37.738V40.9321C25.7217 42.5191 27.0082 43.8056 28.5952 43.8056H28.5962C30.1832 43.8056 31.4697 42.5191 31.4697 40.9321V37.738C31.4697 36.151 30.1832 34.8645 28.5962 34.8645Z" fill="white" />
        <path d="M51.4048 34.8645H51.4038C49.8168 34.8645 48.5303 36.151 48.5303 37.738V40.9321C48.5303 42.5191 49.8168 43.8056 51.4038 43.8056H51.4048C52.9918 43.8056 54.2783 42.5191 54.2783 40.9321V37.738C54.2783 36.151 52.9918 34.8645 51.4048 34.8645Z" fill="white" />
        <path d="M42.3196 42.7305H37.6792C37.1751 42.7305 36.8119 43.2204 36.9651 43.7002C37.3749 44.9843 38.5789 45.9144 39.9989 45.9144C40.8783 45.9144 41.6745 45.5584 42.2506 44.9812C42.6056 44.6273 42.8764 44.1891 43.0337 43.6992C43.1868 43.2194 42.8237 42.7295 42.3196 42.7295V42.7305Z" fill="white" />
    </g>
    <defs>
        <filter id="filter0_di_84_2426" x="-4" y="-4" width="88" height="88" filterUnits="userSpaceOnUse" color-interpolation-filters="sRGB">
            <feFlood flood-opacity="0" result="BackgroundImageFix" />
            <feColorMatrix in="SourceAlpha" type="matrix" values="0 0 0 0 0 0 0 0 0 0 0 0 0 0 0 0 0 0 127 0" result="hardAlpha" />
            <feOffset />
            <feGaussianBlur stdDeviation="2" />
            <feComposite in2="hardAlpha" operator="out" />
            <feColorMatrix type="matrix" values="0 0 0 0 0 0 0 0 0 0 0 0 0 0 0 0 0 0 0.25 0" />
            <feBlend mode="normal" in2="BackgroundImageFix" result="effect1_dropShadow_84_2426" />
            <feBlend mode="normal" in="SourceGraphic" in2="effect1_dropShadow_84_2426" result="shape" />
            <feColorMatrix in="SourceAlpha" type="matrix" values="0 0 0 0 0 0 0 0 0 0 0 0 0 0 0 0 0 0 127 0" result="hardAlpha" />
            <feOffset dy="4" />
            <feGaussianBlur stdDeviation="2" />
            <feComposite in2="hardAlpha" operator="arithmetic" k2="-1" k3="1" />
            <feColorMatrix type="matrix" values="0 0 0 0 1 0 0 0 0 1 0 0 0 0 1 0 0 0 0.25 0" />
            <feBlend mode="normal" in2="shape" result="effect2_innerShadow_84_2426" />
        </filter>
        <linearGradient id="paint0_linear_84_2426" x1="40" y1="0" x2="40" y2="80" gradientUnits="userSpaceOnUse">
            <stop stop-color="#FFAD77" />
            <stop offset="0.658654" stop-color="#DD5903" />
        </linearGradient>
        <clipPath id="clip0_84_2426">
            <rect width="80" height="80" fill="white" />
        </clipPath>
    </defs>
</svg>
