<svg width="17" height="17" viewBox="0 0 17 17" fill="none" xmlns="http://www.w3.org/2000/svg">
    <path fill-rule="evenodd" clip-rule="evenodd" d="M2.95123 0.834974C2.73568 0.626793 2.447 0.511599 2.14734 0.514203C1.84769 0.516807 1.56105 0.637 1.34915 0.848895C1.13726 1.06079 1.01706 1.34743 1.01446 1.64709C1.01185 1.94674 1.12705 2.23543 1.33523 2.45097L7.38437 8.50012L1.33523 14.5493C1.22607 14.6547 1.13901 14.7808 1.07911 14.9202C1.01922 15.0597 0.98769 15.2096 0.986371 15.3614C0.985053 15.5131 1.01397 15.6636 1.07143 15.8041C1.1289 15.9445 1.21376 16.0721 1.32106 16.1794C1.42837 16.2867 1.55597 16.3716 1.69642 16.4291C1.83688 16.4865 1.98737 16.5154 2.13912 16.5141C2.29086 16.5128 2.44083 16.4813 2.58026 16.4214C2.7197 16.3615 2.8458 16.2744 2.95123 16.1653L9.00037 10.1161L15.0495 16.1653C15.2651 16.3734 15.5537 16.4886 15.8534 16.486C16.1531 16.4834 16.4397 16.3632 16.6516 16.1513C16.8635 15.9394 16.9837 15.6528 16.9863 15.3531C16.9889 15.0535 16.8737 14.7648 16.6655 14.5493L10.6164 8.50012L16.6655 2.45097C16.8737 2.23543 16.9889 1.94674 16.9863 1.64709C16.9837 1.34743 16.8635 1.06079 16.6516 0.848895C16.4397 0.637 16.1531 0.516807 15.8534 0.514203C15.5537 0.511599 15.2651 0.626793 15.0495 0.834974L9.00037 6.88412L2.95123 0.834974Z" fill="white" />
</svg>
