<svg width="31" height="30" viewBox="0 0 31 30" fill="none" xmlns="http://www.w3.org/2000/svg">
    <path d="M4.24023 14.4699C4.24023 12.4299 4.75023 10.5399 5.76023 8.80994C6.77023 7.07994 8.14023 5.70994 9.87023 4.69994C11.6002 3.68994 13.4802 3.18994 15.5102 3.18994C17.0302 3.18994 18.4902 3.48994 19.8802 4.07994C21.2702 4.66994 22.4602 5.47994 23.4702 6.47994C24.4802 7.47994 25.2802 8.67994 25.8702 10.0799C26.4602 11.4799 26.7602 12.9299 26.7602 14.4699C26.7602 15.9899 26.4602 17.4499 25.8702 18.8399C25.2802 20.2299 24.4702 21.4299 23.4702 22.4299C22.4702 23.4299 21.2702 24.2299 19.8802 24.8199C18.4902 25.4099 17.0402 25.7099 15.5102 25.7099C13.9802 25.7099 12.5102 25.4099 11.1202 24.8199C9.73023 24.2299 8.53023 23.4199 7.52023 22.4199C6.51023 21.4199 5.72023 20.2199 5.12023 18.8399C4.52023 17.4599 4.24023 15.9999 4.24023 14.4699ZM6.72023 14.4699C6.72023 16.8399 7.58024 18.8999 9.31024 20.6499C11.0402 22.3799 13.1002 23.2399 15.5102 23.2399C17.0902 23.2399 18.5602 22.8499 19.9002 22.0599C21.2402 21.2699 22.3202 20.2099 23.1102 18.8599C23.9002 17.5099 24.3002 16.0499 24.3002 14.4699C24.3002 12.8899 23.9002 11.4199 23.1102 10.0699C22.3202 8.71994 21.2502 7.64994 19.9002 6.85994C18.5502 6.06994 17.0902 5.67994 15.5102 5.67994C13.9302 5.67994 12.4602 6.06994 11.1202 6.85994C9.78023 7.64994 8.70023 8.71994 7.90023 10.0699C7.10023 11.4199 6.72023 12.8899 6.72023 14.4699ZM10.6402 12.4099C10.6065 12.306 10.5953 12.196 10.6074 12.0874C10.6195 11.9788 10.6545 11.874 10.7102 11.7799C10.8202 11.5799 10.9902 11.4499 11.2202 11.3799C11.4502 11.3099 11.6602 11.3399 11.8602 11.4499L14.6402 13.0199V7.80994C14.6402 7.57994 14.7202 7.37994 14.8802 7.21994C15.0402 7.05994 15.2402 6.97994 15.4702 6.97994C15.7002 6.97994 15.9002 7.05994 16.0602 7.21994C16.2202 7.37994 16.3002 7.57994 16.3002 7.80994V14.4799C16.3002 14.7099 16.2202 14.9099 16.0602 15.0699C15.9002 15.2299 15.7002 15.3099 15.4702 15.3099C15.2621 15.3123 15.0612 15.2333 14.9102 15.0899L11.0302 12.9199C10.842 12.8037 10.7031 12.6221 10.6402 12.4099Z" fill="black" />
</svg>
