<svg width="15" height="15" viewBox="0 0 15 15" fill="none" xmlns="http://www.w3.org/2000/svg">
    <path d="M12.8193 1.50488C13.3115 1.52311 13.7217 1.69629 14.0498 2.02441C14.3779 2.35254 14.5511 2.7627 14.5693 3.25488V12.0049C14.5511 12.4971 14.3779 12.9072 14.0498 13.2354C13.7217 13.5635 13.3115 13.7367 12.8193 13.7549H2.31934C1.82715 13.7367 1.41699 13.5635 1.08887 13.2354C0.760742 12.9072 0.587565 12.4971 0.569336 12.0049V3.25488C0.587565 2.7627 0.760742 2.35254 1.08887 2.02441C1.41699 1.69629 1.82715 1.52311 2.31934 1.50488H12.8193ZM6.69434 7.62988V5.00488H2.31934V7.62988H6.69434ZM2.31934 9.37988V12.0049H6.69434V9.37988H2.31934ZM8.44434 12.0049H12.8193V9.37988H8.44434V12.0049ZM12.8193 7.62988V5.00488H8.44434V7.62988H12.8193Z" fill="#111111" />
</svg>
