<svg width="25" height="24" viewBox="0 0 25 24" fill="none" xmlns="http://www.w3.org/2000/svg">
    <path fill-rule="evenodd" clip-rule="evenodd" d="M6.5 4H18.5C19.5609 4 20.5783 4.42143 21.3284 5.17157C22.0786 5.92172 22.5 6.93913 22.5 8V18C22.5 19.0609 22.0786 20.0783 21.3284 20.8284C20.5783 21.5786 19.5609 22 18.5 22H6.5C5.43913 22 4.42172 21.5786 3.67157 20.8284C2.92143 20.0783 2.5 19.0609 2.5 18V8C2.5 6.93913 2.92143 5.92172 3.67157 5.17157C4.42172 4.42143 5.43913 4 6.5 4ZM6.5 6C5.96957 6 5.46086 6.21071 5.08579 6.58579C4.71071 6.96086 4.5 7.46957 4.5 8V18C4.5 18.5304 4.71071 19.0391 5.08579 19.4142C5.46086 19.7893 5.96957 20 6.5 20H18.5C19.0304 20 19.5391 19.7893 19.9142 19.4142C20.2893 19.0391 20.5 18.5304 20.5 18V8C20.5 7.46957 20.2893 6.96086 19.9142 6.58579C19.5391 6.21071 19.0304 6 18.5 6H6.5Z" fill="black" />
    <path fill-rule="evenodd" clip-rule="evenodd" d="M3.5 10C3.5 9.73478 3.60536 9.48043 3.79289 9.29289C3.98043 9.10536 4.23478 9 4.5 9H20.5C20.7652 9 21.0196 9.10536 21.2071 9.29289C21.3946 9.48043 21.5 9.73478 21.5 10C21.5 10.2652 21.3946 10.5196 21.2071 10.7071C21.0196 10.8946 20.7652 11 20.5 11H4.5C4.23478 11 3.98043 10.8946 3.79289 10.7071C3.60536 10.5196 3.5 10.2652 3.5 10ZM8.5 2C8.76522 2 9.01957 2.10536 9.20711 2.29289C9.39464 2.48043 9.5 2.73478 9.5 3V7C9.5 7.26522 9.39464 7.51957 9.20711 7.70711C9.01957 7.89464 8.76522 8 8.5 8C8.23478 8 7.98043 7.89464 7.79289 7.70711C7.60536 7.51957 7.5 7.26522 7.5 7V3C7.5 2.73478 7.60536 2.48043 7.79289 2.29289C7.98043 2.10536 8.23478 2 8.5 2ZM16.5 2C16.7652 2 17.0196 2.10536 17.2071 2.29289C17.3946 2.48043 17.5 2.73478 17.5 3V7C17.5 7.26522 17.3946 7.51957 17.2071 7.70711C17.0196 7.89464 16.7652 8 16.5 8C16.2348 8 15.9804 7.89464 15.7929 7.70711C15.6054 7.51957 15.5 7.26522 15.5 7V3C15.5 2.73478 15.6054 2.48043 15.7929 2.29289C15.9804 2.10536 16.2348 2 16.5 2Z" fill="black" />
    <path d="M8.5 13C8.5 13.2652 8.39464 13.5196 8.20711 13.7071C8.01957 13.8946 7.76522 14 7.5 14C7.23478 14 6.98043 13.8946 6.79289 13.7071C6.60536 13.5196 6.5 13.2652 6.5 13C6.5 12.7348 6.60536 12.4804 6.79289 12.2929C6.98043 12.1054 7.23478 12 7.5 12C7.76522 12 8.01957 12.1054 8.20711 12.2929C8.39464 12.4804 8.5 12.7348 8.5 13ZM8.5 17C8.5 17.2652 8.39464 17.5196 8.20711 17.7071C8.01957 17.8946 7.76522 18 7.5 18C7.23478 18 6.98043 17.8946 6.79289 17.7071C6.60536 17.5196 6.5 17.2652 6.5 17C6.5 16.7348 6.60536 16.4804 6.79289 16.2929C6.98043 16.1054 7.23478 16 7.5 16C7.76522 16 8.01957 16.1054 8.20711 16.2929C8.39464 16.4804 8.5 16.7348 8.5 17ZM13.5 13C13.5 13.2652 13.3946 13.5196 13.2071 13.7071C13.0196 13.8946 12.7652 14 12.5 14C12.2348 14 11.9804 13.8946 11.7929 13.7071C11.6054 13.5196 11.5 13.2652 11.5 13C11.5 12.7348 11.6054 12.4804 11.7929 12.2929C11.9804 12.1054 12.2348 12 12.5 12C12.7652 12 13.0196 12.1054 13.2071 12.2929C13.3946 12.4804 13.5 12.7348 13.5 13ZM13.5 17C13.5 17.2652 13.3946 17.5196 13.2071 17.7071C13.0196 17.8946 12.7652 18 12.5 18C12.2348 18 11.9804 17.8946 11.7929 17.7071C11.6054 17.5196 11.5 17.2652 11.5 17C11.5 16.7348 11.6054 16.4804 11.7929 16.2929C11.9804 16.1054 12.2348 16 12.5 16C12.7652 16 13.0196 16.1054 13.2071 16.2929C13.3946 16.4804 13.5 16.7348 13.5 17ZM18.5 13C18.5 13.2652 18.3946 13.5196 18.2071 13.7071C18.0196 13.8946 17.7652 14 17.5 14C17.2348 14 16.9804 13.8946 16.7929 13.7071C16.6054 13.5196 16.5 13.2652 16.5 13C16.5 12.7348 16.6054 12.4804 16.7929 12.2929C16.9804 12.1054 17.2348 12 17.5 12C17.7652 12 18.0196 12.1054 18.2071 12.2929C18.3946 12.4804 18.5 12.7348 18.5 13ZM18.5 17C18.5 17.2652 18.3946 17.5196 18.2071 17.7071C18.0196 17.8946 17.7652 18 17.5 18C17.2348 18 16.9804 17.8946 16.7929 17.7071C16.6054 17.5196 16.5 17.2652 16.5 17C16.5 16.7348 16.6054 16.4804 16.7929 16.2929C16.9804 16.1054 17.2348 16 17.5 16C17.7652 16 18.0196 16.1054 18.2071 16.2929C18.3946 16.4804 18.5 16.7348 18.5 17Z" fill="black" />
</svg>
