<svg width="19" height="16" viewBox="0 0 19 16" fill="none" xmlns="http://www.w3.org/2000/svg">
    <path d="M9.84919 -3.52859e-05C10.1617 0.0207977 10.3909 0.166632 10.5367 0.437465L12.6617 4.84371L17.4429 5.56246C17.7554 5.60413 17.9638 5.7708 18.0679 6.06246C18.1513 6.35413 18.0888 6.60413 17.8804 6.81246L14.4117 10.25L15.2242 15.125C15.2659 15.4166 15.1617 15.6562 14.9117 15.8437C14.6409 16.0104 14.3804 16.0312 14.1304 15.9062L9.84919 13.625L5.53669 15.9062C5.28669 16.0312 5.03669 16.0104 4.78669 15.8437C4.53669 15.6562 4.42211 15.4166 4.44294 15.125L5.28669 10.25L1.81794 6.81246C1.60961 6.60413 1.54711 6.35413 1.63044 6.06246C1.73461 5.7708 1.93252 5.60413 2.22419 5.56246L7.03669 4.84371L9.16169 0.437465C9.30752 0.166632 9.53669 0.0207977 9.84919 -3.52859e-05ZM9.84919 2.46871L8.19294 5.84371C8.08877 6.07288 7.90127 6.21871 7.63044 6.28121L3.94294 6.81246L6.63044 9.46872C6.79711 9.65622 6.87002 9.87497 6.84919 10.125L6.19294 13.875L9.50544 12.125C9.73461 12 9.96377 12 10.1929 12.125L13.4742 13.875L12.8492 10.125C12.8075 9.87497 12.8804 9.65622 13.0679 9.46872L15.7554 6.81246L12.0679 6.28121C11.7971 6.21871 11.6096 6.07288 11.5054 5.84371L9.84919 2.46871Z" fill="#FFA200" />
</svg>
