<svg width="55" height="32" viewBox="0 0 55 32" fill="none" xmlns="http://www.w3.org/2000/svg">
    <path d="M54.5197 10.7141C54.4274 9.73122 54.0106 8.84675 53.3776 8.16514V3.56427C53.3776 2.99626 52.9171 2.53576 52.3491 2.53576C52.0651 2.53576 51.8085 2.65139 51.6219 2.83701C51.4363 3.02263 51.3206 3.28026 51.3206 3.56427V6.92566C51.0863 6.86278 50.8439 6.81815 50.5954 6.79482C50.5295 6.78873 50.4625 6.78265 50.3956 6.77656C49.8519 3.65555 47.2776 1.24456 44.0765 0.945338C40.4331 0.604532 34.9315 0.268799 27.377 0.268799C19.8225 0.268799 14.4893 0.626848 10.711 0.979825C7.51902 1.27702 4.94776 3.66773 4.38888 6.77352C4.31078 6.78062 4.2337 6.78772 4.15762 6.79482C3.90912 6.81815 3.6667 6.86278 3.4324 6.92566V3.56427C3.4324 3.28026 3.31677 3.02263 3.13115 2.83701C2.94452 2.65139 2.68689 2.53576 2.4039 2.53576C1.83589 2.53576 1.37539 2.99626 1.37539 3.56427V8.16514C0.742469 8.84675 0.324577 9.73122 0.23329 10.7141C0.103459 12.0966 0 13.8706 0 16.0016C0 18.1327 0.0943303 19.9371 0.215032 21.2831C0.402678 23.3715 2.04889 25.032 4.13632 25.2267C4.21037 25.2338 4.28543 25.2409 4.3615 25.247C4.92038 28.3548 7.48149 30.7567 10.6755 31.0559C14.3189 31.3967 19.8205 31.7314 27.376 31.7314C34.9315 31.7314 40.2708 31.3734 44.0491 31.0204C47.2289 30.7232 49.7921 28.3426 50.3591 25.25C50.4463 25.2419 50.5315 25.2348 50.6157 25.2267C52.7031 25.032 54.3493 23.3705 54.537 21.2831C54.6577 19.9371 54.752 18.1864 54.752 16.0016C54.752 13.8168 54.6485 12.0966 54.5187 10.7141H54.5197ZM47.165 24.3209C46.9956 26.1325 45.5563 27.5708 43.7428 27.7401C40.3378 28.0576 34.7337 28.437 27.376 28.437C21.278 28.437 15.6091 28.2088 10.9829 27.7756C9.1632 27.6052 7.72289 26.1538 7.55858 24.324C7.3334 21.8278 7.2198 19.0273 7.2198 16.0006C7.2198 12.9739 7.34354 10.2769 7.58596 7.6803C7.75535 5.86876 9.1987 4.43048 11.0163 4.26007C14.4193 3.9426 20.0213 3.56325 27.375 3.56325C34.7287 3.56325 40.5427 3.92333 43.7671 4.22458C45.5858 4.39498 47.0261 5.8363 47.1904 7.65292C47.4166 10.1562 47.5312 12.9648 47.5312 16.0006C47.5312 19.0364 47.4075 21.7213 47.165 24.3199V24.3209Z" fill="white" />
    <path d="M15.9722 10.8652H15.9712C14.3842 10.8652 13.0977 12.1518 13.0977 13.7387V16.9328C13.0977 18.5198 14.3842 19.8063 15.9712 19.8063H15.9722C17.5592 19.8063 18.8457 18.5198 18.8457 16.9328V13.7387C18.8457 12.1518 17.5592 10.8652 15.9722 10.8652Z" fill="white" />
    <path d="M38.7808 10.8652H38.7798C37.1928 10.8652 35.9062 12.1518 35.9062 13.7387V16.9328C35.9062 18.5198 37.1928 19.8063 38.7798 19.8063H38.7808C40.3678 19.8063 41.6543 18.5198 41.6543 16.9328V13.7387C41.6543 12.1518 40.3678 10.8652 38.7808 10.8652Z" fill="white" />
    <path d="M29.6956 18.7311H25.0551C24.551 18.7311 24.1879 19.221 24.3411 19.7008C24.7509 20.9849 25.9548 21.915 27.3749 21.915C28.2543 21.915 29.0505 21.559 29.6266 20.9819C29.9816 20.6279 30.2524 20.1897 30.4096 19.6998C30.5628 19.22 30.1997 18.7301 29.6956 18.7301V18.7311Z" fill="white" />
</svg>
