<svg width="15" height="14" viewBox="0 0 15 14" fill="none" xmlns="http://www.w3.org/2000/svg">
    <path d="M3.64453 14H0.738281V4.65625H3.64453V14ZM2.17578 3.40625C1.26953 3.40625 0.519531 2.625 0.519531 1.6875C0.519531 0.78125 1.26953 0.03125 2.17578 0.03125C3.11328 0.03125 3.86328 0.78125 3.86328 1.6875C3.86328 2.625 3.11328 3.40625 2.17578 3.40625ZM14.4883 14H11.6133V9.46875C11.6133 8.375 11.582 7 10.082 7C8.58203 7 8.36328 8.15625 8.36328 9.375V14H5.45703V4.65625H8.23828V5.9375H8.26953C8.67578 5.21875 9.61328 4.4375 11.0195 4.4375C13.957 4.4375 14.5195 6.375 14.5195 8.875V14H14.4883Z" fill="white" />
</svg>
