<svg width="11" height="14" viewBox="0 0 11 14" fill="none" xmlns="http://www.w3.org/2000/svg"> <path d="M4.59375 13.6445C4.10156 13.043 3.49089 12.2318 2.76172 11.2109C2.05078 10.2083 1.42188 9.16927 0.875 8.09375C0.328125 7.01823 0.0364583 6.07031 0 5.25C0.0364583 3.75521 0.546875 2.51562 1.53125 1.53125C2.51562 0.546875 3.75521 0.036458 5.25 0C6.74479 0.036458 7.98438 0.546875 8.96875 1.53125C9.95312 2.51562 10.4635 3.75521 10.5 5.25C10.4635 6.07031 10.1719 7.01823 9.625 8.09375C9.0599 9.16927 8.42188 10.2083 7.71094 11.2109C7 12.2318 6.39844 13.043 5.90625 13.6445C5.72396 13.8633 5.50521 13.9727 5.25 13.9727C4.99479 13.9727 4.77604 13.8633 4.59375 13.6445ZM5.25 7C5.74219 6.98177 6.15234 6.80859 6.48047 6.48047C6.80859 6.15234 6.98177 5.74219 7 5.25C6.98177 4.75781 6.80859 4.34766 6.48047 4.01953C6.15234 3.69141 5.74219 3.51823 5.25 3.5C4.75781 3.51823 4.34766 3.69141 4.01953 4.01953C3.69141 4.34766 3.51823 4.75781 3.5 5.25C3.51823 5.74219 3.69141 6.15234 4.01953 6.48047C4.34766 6.80859 4.75781 6.98177 5.25 7Z" fill="white" /> </svg>