<svg width="14" height="14" viewBox="0 0 14 14" fill="none" xmlns="http://www.w3.org/2000/svg">
    <path d="M13.5078 4.45703C13.2891 4.29297 13.0339 4.10156 12.7422 3.88281C12.4688 3.66406 12.0404 3.34505 11.457 2.92578C10.8919 2.50651 10.0716 1.90495 8.99609 1.12109C8.92318 1.06641 8.84115 1.0026 8.75 0.929688C8.49479 0.729167 8.21224 0.528646 7.90234 0.328125C7.57422 0.127604 7.27344 0.0182295 7 0C6.72656 0.0182295 6.42578 0.127604 6.09766 0.328125C5.78776 0.528646 5.50521 0.729167 5.25 0.929688C5.15885 1.0026 5.07682 1.06641 5.00391 1.12109C4.85807 1.23047 4.72135 1.33073 4.59375 1.42188C3.64583 2.11458 2.91667 2.65234 2.40625 3.03516C1.8776 3.39974 1.47656 3.69141 1.20312 3.91016C0.929688 4.11068 0.692708 4.29297 0.492188 4.45703C0.164062 4.73047 0 5.07682 0 5.49609V12.6875C0.0182292 13.0521 0.145833 13.362 0.382812 13.6172C0.638021 13.8542 0.947917 13.9818 1.3125 14H12.6875C13.0521 13.9818 13.362 13.8542 13.6172 13.6172C13.8542 13.3802 13.9818 13.0794 14 12.7148V5.49609C14 5.07682 13.8359 4.73047 13.5078 4.45703ZM8.28516 10.0625C7.88411 10.3542 7.45573 10.5 7 10.5C6.54427 10.5 6.11589 10.3542 5.71484 10.0625L1.75 6.97266V5.71484C1.98698 5.51432 2.39714 5.19531 2.98047 4.75781C3.54557 4.33854 4.55729 3.60026 6.01562 2.54297C6.10677 2.47005 6.20703 2.39714 6.31641 2.32422C6.33464 2.30599 6.35286 2.28776 6.37109 2.26953C6.57161 2.1237 6.78125 1.97786 7 1.83203C7.25521 1.99609 7.48307 2.16016 7.68359 2.32422C7.79297 2.39714 7.89323 2.47005 7.98438 2.54297C9.42448 3.60026 10.4362 4.33854 11.0195 4.75781C11.5846 5.19531 11.9948 5.51432 12.25 5.71484V6.97266L8.28516 10.0625Z" fill="white" />
</svg>
