<svg width="16" height="15" viewBox="0 0 16 15" fill="none" xmlns="http://www.w3.org/2000/svg">
    <path d="M13.3193 1.18506C13.8115 1.20329 14.2217 1.37646 14.5498 1.70459C14.8779 2.03271 15.0511 2.44287 15.0693 2.93506V11.6851C15.0511 12.1772 14.8779 12.5874 14.5498 12.9155C14.2217 13.2437 13.8115 13.4168 13.3193 13.4351H2.81934C2.32715 13.4168 1.91699 13.2437 1.58887 12.9155C1.26074 12.5874 1.08757 12.1772 1.06934 11.6851V2.93506C1.08757 2.44287 1.26074 2.03271 1.58887 1.70459C1.91699 1.37646 2.32715 1.20329 2.81934 1.18506H13.3193ZM7.19434 7.31006V4.68506H2.81934V7.31006H7.19434ZM2.81934 9.06006V11.6851H7.19434V9.06006H2.81934ZM8.94434 11.6851H13.3193V9.06006H8.94434V11.6851ZM13.3193 7.31006V4.68506H8.94434V7.31006H13.3193Z" fill="white" />
</svg>
