<svg width="14" height="14" viewBox="0 0 14 14" fill="none" xmlns="http://www.w3.org/2000/svg">
    <path d="M0.519757 9.59766L3.47288 8.33984C3.87392 8.19401 4.21116 8.27604 4.4846 8.58594L5.68773 10.0352C6.63564 9.57943 7.4833 8.97786 8.23069 8.23047C8.97809 7.48307 9.57965 6.63542 10.0354 5.6875L8.58616 4.48438C8.27627 4.21094 8.19424 3.8737 8.34007 3.47266L9.59788 0.519531C9.81663 0.118489 10.1448 -0.0455732 10.5823 0.0273438L13.344 0.65625C13.7632 0.783854 13.982 1.06641 14.0002 1.50391C13.982 3.81901 13.4078 5.91536 12.2776 7.79297C11.1656 9.67057 9.6708 11.1745 7.79319 12.3047C5.91559 13.4167 3.81012 13.9818 1.47679 14C1.05752 13.9818 0.78408 13.763 0.656475 13.3438L0.0275691 10.582C-0.0453476 10.1445 0.118715 9.81641 0.519757 9.59766Z" fill="white" />
</svg>
