<svg width="131" height="131" viewBox="0 0 131 131" fill="none" xmlns="http://www.w3.org/2000/svg">
    <path d="M73.408 63.52V51.6H77.504C78.2827 51.6 78.9653 51.7547 79.552 52.064C80.1387 52.3627 80.592 52.7894 80.912 53.344C81.2427 53.888 81.408 54.5227 81.408 55.248C81.408 55.9734 81.2427 56.608 80.912 57.152C80.592 57.696 80.1387 58.1227 79.552 58.432C78.976 58.7307 78.2933 58.88 77.504 58.88H74.688V63.52H73.408ZM74.688 57.68H77.568C78.08 57.68 78.528 57.584 78.912 57.392C79.296 57.1894 79.5947 56.9067 79.808 56.544C80.0213 56.1707 80.128 55.7334 80.128 55.232C80.128 54.7307 80.0213 54.2987 79.808 53.936C79.5947 53.5734 79.296 53.296 78.912 53.104C78.528 52.9014 78.08 52.8 77.568 52.8H74.688V57.68ZM83.5133 63.52V51.408H84.7133V63.52H83.5133ZM89.6495 63.712C89.1055 63.712 88.6202 63.6107 88.1935 63.408C87.7668 63.1947 87.4308 62.9067 87.1855 62.544C86.9402 62.1814 86.8175 61.7654 86.8175 61.296C86.8175 60.848 86.9135 60.4427 87.1055 60.08C87.2975 59.7067 87.5962 59.392 88.0015 59.136C88.4068 58.88 88.9242 58.6987 89.5535 58.592L92.9135 58.032V59.12L89.8415 59.632C89.2228 59.7387 88.7748 59.936 88.4975 60.224C88.2308 60.512 88.0975 60.8534 88.0975 61.248C88.0975 61.632 88.2468 61.9574 88.5455 62.224C88.8548 62.4907 89.2495 62.624 89.7295 62.624C90.3162 62.624 90.8282 62.5014 91.2655 62.256C91.7028 62 92.0442 61.6587 92.2895 61.232C92.5348 60.8054 92.6575 60.3307 92.6575 59.808V57.632C92.6575 57.12 92.4708 56.704 92.0975 56.384C91.7242 56.064 91.2388 55.904 90.6415 55.904C90.1188 55.904 89.6602 56.0374 89.2655 56.304C88.8708 56.56 88.5775 56.896 88.3855 57.312L87.2975 56.72C87.4575 56.3574 87.7082 56.0267 88.0495 55.728C88.4015 55.4294 88.8015 55.1947 89.2495 55.024C89.6975 54.8427 90.1615 54.752 90.6415 54.752C91.2708 54.752 91.8255 54.8747 92.3055 55.12C92.7962 55.3654 93.1748 55.7067 93.4415 56.144C93.7188 56.5707 93.8575 57.0667 93.8575 57.632V63.52H92.6575V61.808L92.8335 61.984C92.6842 62.304 92.4495 62.5974 92.1295 62.864C91.8202 63.12 91.4522 63.328 91.0255 63.488C90.6095 63.6374 90.1508 63.712 89.6495 63.712ZM96.5018 67.04C96.3311 67.04 96.1551 67.024 95.9738 66.992C95.8031 66.9707 95.6324 66.928 95.4618 66.864V65.744C95.5684 65.7547 95.7018 65.7707 95.8618 65.792C96.0324 65.824 96.2031 65.84 96.3738 65.84C96.8964 65.84 97.2964 65.728 97.5738 65.504C97.8511 65.2907 98.1231 64.8747 98.3898 64.256L98.9338 62.976L98.9018 64.032L95.2698 54.944H96.5658L99.5418 62.448H99.2057L102.166 54.944H103.494L99.5738 64.608C99.4031 65.024 99.1844 65.4187 98.9178 65.792C98.6618 66.1654 98.3364 66.464 97.9418 66.688C97.5471 66.9227 97.0671 67.04 96.5018 67.04ZM76.544 89.52L72.176 77.6H73.504L77.344 88.384H77.088L80.912 77.6H82.256L77.888 89.52H76.544ZM86.7766 89.712C85.9766 89.712 85.2513 89.52 84.6006 89.136C83.9606 88.7414 83.454 88.2027 83.0806 87.52C82.7073 86.8374 82.5206 86.064 82.5206 85.2C82.5206 84.336 82.702 83.5734 83.0646 82.912C83.4273 82.24 83.918 81.712 84.5366 81.328C85.166 80.944 85.87 80.752 86.6486 80.752C87.2673 80.752 87.8166 80.8694 88.2966 81.104C88.7873 81.328 89.2033 81.6374 89.5446 82.032C89.886 82.416 90.1473 82.8534 90.3286 83.344C90.51 83.824 90.6006 84.32 90.6006 84.832C90.6006 84.9387 90.5953 85.0614 90.5846 85.2C90.574 85.328 90.558 85.4614 90.5366 85.6H83.2886V84.48H89.8486L89.2726 84.96C89.3686 84.3734 89.2993 83.8507 89.0646 83.392C88.8406 82.9227 88.5153 82.5547 88.0886 82.288C87.662 82.0107 87.182 81.872 86.6486 81.872C86.1153 81.872 85.6193 82.0107 85.1606 82.288C84.7126 82.5654 84.3606 82.9547 84.1046 83.456C83.8486 83.9467 83.7473 84.5334 83.8006 85.216C83.7473 85.8987 83.854 86.496 84.1206 87.008C84.398 87.5094 84.7713 87.8987 85.2406 88.176C85.7206 88.4534 86.2326 88.592 86.7766 88.592C87.406 88.592 87.934 88.4427 88.3606 88.144C88.7873 87.8454 89.134 87.472 89.4006 87.024L90.4246 87.568C90.254 87.952 89.9926 88.3094 89.6406 88.64C89.2886 88.96 88.8673 89.2214 88.3766 89.424C87.8966 89.616 87.3633 89.712 86.7766 89.712ZM96.5884 89.712C95.7884 89.712 95.0684 89.52 94.4284 89.136C93.7884 88.7414 93.2817 88.208 92.9084 87.536C92.5457 86.8534 92.3644 86.0854 92.3644 85.232C92.3644 84.368 92.5457 83.6 92.9084 82.928C93.2817 82.256 93.783 81.728 94.4124 81.344C95.0524 80.9494 95.7777 80.752 96.5884 80.752C97.3244 80.752 97.9804 80.912 98.5564 81.232C99.1324 81.552 99.5857 81.984 99.9164 82.528L99.7244 82.864V77.408H100.924V89.52H99.7244V87.6L99.9164 87.776C99.6177 88.3947 99.1697 88.8747 98.5724 89.216C97.9857 89.5467 97.3244 89.712 96.5884 89.712ZM96.6524 88.512C97.2284 88.512 97.7457 88.368 98.2044 88.08C98.6737 87.792 99.0417 87.4027 99.3084 86.912C99.5857 86.4107 99.7244 85.8507 99.7244 85.232C99.7244 84.6134 99.5857 84.0587 99.3084 83.568C99.0417 83.0667 98.6737 82.672 98.2044 82.384C97.7457 82.096 97.2284 81.952 96.6524 81.952C96.087 81.952 95.575 82.096 95.1164 82.384C94.6577 82.672 94.295 83.0614 94.0284 83.552C93.7724 84.0427 93.6444 84.6027 93.6444 85.232C93.6444 85.8507 93.7724 86.4107 94.0284 86.912C94.295 87.4027 94.6524 87.792 95.1004 88.08C95.559 88.368 96.0764 88.512 96.6524 88.512ZM103.388 89.52V80.944H104.588V89.52H103.388ZM103.388 79.36V77.6H104.588V79.36H103.388ZM111.061 89.712C110.25 89.712 109.514 89.52 108.853 89.136C108.191 88.7414 107.663 88.208 107.269 87.536C106.885 86.8534 106.693 86.08 106.693 85.216C106.693 84.3627 106.885 83.6 107.269 82.928C107.653 82.256 108.17 81.728 108.821 81.344C109.482 80.9494 110.229 80.752 111.061 80.752C111.893 80.752 112.634 80.944 113.285 81.328C113.946 81.712 114.463 82.24 114.837 82.912C115.221 83.584 115.413 84.352 115.413 85.216C115.413 86.0907 115.215 86.8694 114.821 87.552C114.426 88.224 113.898 88.752 113.237 89.136C112.586 89.52 111.861 89.712 111.061 89.712ZM111.061 88.512C111.637 88.512 112.154 88.368 112.613 88.08C113.082 87.792 113.45 87.3974 113.717 86.896C113.994 86.3947 114.133 85.8347 114.133 85.216C114.133 84.5974 113.994 84.0427 113.717 83.552C113.45 83.0614 113.082 82.672 112.613 82.384C112.154 82.096 111.637 81.952 111.061 81.952C110.485 81.952 109.962 82.096 109.493 82.384C109.034 82.672 108.666 83.0614 108.389 83.552C108.111 84.0427 107.973 84.5974 107.973 85.216C107.973 85.8347 108.111 86.3947 108.389 86.896C108.666 87.3974 109.034 87.792 109.493 88.08C109.962 88.368 110.485 88.512 111.061 88.512Z" fill="#6E777D" />
    <mask id="path-3-inside-1_47_4594" fill="white">
        <path d="M0.410156 65.72C0.410156 29.8215 29.5116 0.719971 65.4102 0.719971C101.309 0.719971 130.41 29.8215 130.41 65.72C130.41 101.618 101.309 130.72 65.4102 130.72C29.5116 130.72 0.410156 101.618 0.410156 65.72Z" />
    </mask>
    <path d="M65.4102 130.72V129.72C30.0639 129.72 1.41016 101.066 1.41016 65.72H0.410156H-0.589844C-0.589844 102.171 28.9594 131.72 65.4102 131.72V130.72ZM130.41 65.72H129.41C129.41 101.066 100.756 129.72 65.4102 129.72V130.72V131.72C101.861 131.72 131.41 102.171 131.41 65.72H130.41ZM65.4102 0.719971V1.71997C100.756 1.71997 129.41 30.3737 129.41 65.72H130.41H131.41C131.41 29.2692 101.861 -0.280029 65.4102 -0.280029V0.719971ZM65.4102 0.719971V-0.280029C28.9594 -0.280029 -0.589844 29.2692 -0.589844 65.72H0.410156H1.41016C1.41016 30.3737 30.0639 1.71997 65.4102 1.71997V0.719971Z" fill="#DD5903" mask="url(#path-3-inside-1_47_4594)" />
    <rect x="16" y="15.52" width="100" height="100" rx="50" fill="white" />
    <mask id="path-6-inside-2_47_4594" fill="white">
        <path d="M60.0303 53.52H78.0303V77.52H60.0303V53.52Z" />
    </mask>
    <g clip-path="url(#paint0_diamond_47_4594_clip_path)" data-figma-skip-parse="true" mask="url(#path-6-inside-2_47_4594)"><g transform="matrix(0.018 0 0 0.012 60.0303 65.52)"><rect x="0" y="0" width="1055.56" height="1083.33" fill="url(#paint0_diamond_47_4594)" opacity="1" shape-rendering="crispEdges" /><rect x="0" y="0" width="1055.56" height="1083.33" transform="scale(1 -1)" fill="url(#paint0_diamond_47_4594)" opacity="1" shape-rendering="crispEdges" /><rect x="0" y="0" width="1055.56" height="1083.33" transform="scale(-1 1)" fill="url(#paint0_diamond_47_4594)" opacity="1" shape-rendering="crispEdges" /><rect x="0" y="0" width="1055.56" height="1083.33" transform="scale(-1)" fill="url(#paint0_diamond_47_4594)" opacity="1" shape-rendering="crispEdges" /></g></g><path d="M60.0303 53.52V41.52H42.0303V53.52H60.0303ZM60.0303 77.52H42.0303V89.52H60.0303V77.52ZM60.0303 53.52V65.52H78.0303V53.52V41.52H60.0303V53.52ZM78.0303 77.52V65.52H60.0303V77.52V89.52H78.0303V77.52ZM60.0303 77.52H78.0303V53.52H60.0303H42.0303V77.52H60.0303Z" data-figma-gradient-fill="{&#34;type&#34;:&#34;GRADIENT_DIAMOND&#34;,&#34;stops&#34;:[{&#34;color&#34;:{&#34;r&#34;:0.86666667461395264,&#34;g&#34;:0.34901961684226990,&#34;b&#34;:0.011764706112444401,&#34;a&#34;:1.0},&#34;position&#34;:0.99999988079071045},{&#34;color&#34;:{&#34;r&#34;:0.0,&#34;g&#34;:0.0,&#34;b&#34;:0.0,&#34;a&#34;:0.0},&#34;position&#34;:1.0}],&#34;stopsVar&#34;:[{&#34;color&#34;:{&#34;r&#34;:0.86666667461395264,&#34;g&#34;:0.34901961684226990,&#34;b&#34;:0.011764706112444401,&#34;a&#34;:1.0},&#34;position&#34;:0.99999988079071045},{&#34;color&#34;:{&#34;r&#34;:0.0,&#34;g&#34;:0.0,&#34;b&#34;:0.0,&#34;a&#34;:0.0},&#34;position&#34;:1.0}],&#34;transform&#34;:{&#34;m00&#34;:36.0,&#34;m01&#34;:0.0,&#34;m02&#34;:42.03027343750,&#34;m10&#34;:0.0,&#34;m11&#34;:24.0,&#34;m12&#34;:53.520019531250},&#34;opacity&#34;:1.0,&#34;blendMode&#34;:&#34;NORMAL&#34;,&#34;visible&#34;:true}" mask="url(#path-6-inside-2_47_4594)" />
    <defs>
        <clipPath id="paint0_diamond_47_4594_clip_path"><path d="M60.0303 53.52V41.52H42.0303V53.52H60.0303ZM60.0303 77.52H42.0303V89.52H60.0303V77.52ZM60.0303 53.52V65.52H78.0303V53.52V41.52H60.0303V53.52ZM78.0303 77.52V65.52H60.0303V77.52V89.52H78.0303V77.52ZM60.0303 77.52H78.0303V53.52H60.0303H42.0303V77.52H60.0303Z" mask="url(#path-6-inside-2_47_4594)" /></clipPath><linearGradient id="paint0_diamond_47_4594" x1="0" y1="0" x2="500" y2="500" gradientUnits="userSpaceOnUse">
            <stop offset="1" stop-color="#DD5903" />
            <stop offset="1" stop-opacity="0" />
        </linearGradient>
    </defs>
</svg>
