<svg width="40" height="41" viewBox="0 0 40 41" fill="none" xmlns="http://www.w3.org/2000/svg">
    <mask id="mask0_35_3488" style="mask-type:luminance" maskUnits="userSpaceOnUse" x="1" y="1" width="38" height="39">
        <path d="M20.0007 37.1666C22.1898 37.1693 24.3578 36.7394 26.3803 35.9017C28.4027 35.0639 30.2397 33.8348 31.7857 32.2849C33.3355 30.739 34.5646 28.902 35.4024 26.8795C36.2402 24.8571 36.67 22.689 36.6673 20.4999C36.67 18.3108 36.2402 16.1428 35.4024 14.1203C34.5646 12.0979 33.3355 10.2609 31.7857 8.71493C30.2397 7.16507 28.4027 5.93595 26.3803 5.09819C24.3578 4.26044 22.1898 3.83057 20.0007 3.83326C17.8116 3.83057 15.6435 4.26044 13.6211 5.09819C11.5986 5.93595 9.76164 7.16507 8.21566 8.71493C6.6658 10.2609 5.43668 12.0979 4.59893 14.1203C3.76117 16.1428 3.3313 18.3108 3.334 20.4999C3.3313 22.689 3.76117 24.8571 4.59893 26.8795C5.43668 28.902 6.6658 30.739 8.21566 32.2849C9.76164 33.8348 11.5986 35.0639 13.6211 35.9017C15.6435 36.7394 17.8116 37.1693 20.0007 37.1666Z" fill="white" stroke="white" stroke-width="4" stroke-linejoin="round" />
        <path d="M13.334 20.5L18.334 25.5L28.334 15.5" stroke="black" stroke-width="4" stroke-linecap="round" stroke-linejoin="round" />
    </mask>
    <g mask="url(#mask0_35_3488)">
        <path d="M0 0.5H40V40.5H0V0.5Z" fill="#DD5903" />
    </g>
</svg>
