<svg width="17" height="17" viewBox="0 0 17 17" fill="none" xmlns="http://www.w3.org/2000/svg">
<path d="M11.1559 5.1874L15.6559 5.8749C16.0517 5.9374 16.3225 6.15615 16.4684 6.53115C16.5725 6.92699 16.4892 7.27074 16.2184 7.5624L12.9684 10.7499L13.7184 15.3437C13.7809 15.7395 13.6454 16.0624 13.3121 16.3124C12.9788 16.5416 12.635 16.5624 12.2809 16.3749L8.24961 14.2499L4.24961 16.3749C3.87461 16.5624 3.52044 16.5416 3.18711 16.3124C2.87461 16.0624 2.73919 15.7395 2.78086 15.3437L3.56211 10.7499L0.312109 7.5624C0.0204427 7.27074 -0.0628906 6.92699 0.0621094 6.53115C0.187109 6.15615 0.447526 5.9374 0.843359 5.8749L5.34336 5.1874L7.34336 1.0624C7.55169 0.708236 7.85378 0.520736 8.24961 0.499903C8.66628 0.520736 8.96836 0.708236 9.15586 1.0624L11.1559 5.1874Z" fill="#FFA200"/>
</svg>
