<svg width="17" height="14" viewBox="0 0 17 14" fill="none" xmlns="http://www.w3.org/2000/svg">
    <path d="M14.8633 3.75C14.8633 3.90625 14.8633 4.03125 14.8633 4.1875C14.8633 8.53125 11.582 13.5 5.55078 13.5C3.67578 13.5 1.95703 12.9688 0.519531 12.0312C0.769531 12.0625 1.01953 12.0938 1.30078 12.0938C2.83203 12.0938 4.23828 11.5625 5.36328 10.6875C3.92578 10.6562 2.70703 9.71875 2.30078 8.40625C2.51953 8.4375 2.70703 8.46875 2.92578 8.46875C3.20703 8.46875 3.51953 8.40625 3.76953 8.34375C2.26953 8.03125 1.14453 6.71875 1.14453 5.125V5.09375C1.58203 5.34375 2.11328 5.46875 2.64453 5.5C1.73828 4.90625 1.17578 3.90625 1.17578 2.78125C1.17578 2.15625 1.33203 1.59375 1.61328 1.125C3.23828 3.09375 5.67578 4.40625 8.39453 4.5625C8.33203 4.3125 8.30078 4.0625 8.30078 3.8125C8.30078 2 9.76953 0.53125 11.582 0.53125C12.5195 0.53125 13.3633 0.90625 13.9883 1.5625C14.707 1.40625 15.4258 1.125 16.0508 0.75C15.8008 1.53125 15.3008 2.15625 14.6133 2.5625C15.2695 2.5 15.9258 2.3125 16.4883 2.0625C16.0508 2.71875 15.4883 3.28125 14.8633 3.75Z" fill="white" />
</svg>
