<svg width="19" height="12" viewBox="0 0 19 12" fill="none" xmlns="http://www.w3.org/2000/svg">
    <path d="M17.6758 1.90625C18.0508 3.21875 18.0508 6.03125 18.0508 6.03125C18.0508 6.03125 18.0508 8.8125 17.6758 10.1562C17.4883 10.9062 16.8945 11.4688 16.1758 11.6562C14.832 12 9.51953 12 9.51953 12C9.51953 12 4.17578 12 2.83203 11.6562C2.11328 11.4688 1.51953 10.9062 1.33203 10.1562C0.957031 8.8125 0.957031 6.03125 0.957031 6.03125C0.957031 6.03125 0.957031 3.21875 1.33203 1.90625C1.51953 1.15625 2.11328 0.5625 2.83203 0.375C4.17578 0 9.51953 0 9.51953 0C9.51953 0 14.832 0 16.1758 0.375C16.8945 0.5625 17.4883 1.15625 17.6758 1.90625ZM7.76953 8.5625L12.207 6.03125L7.76953 3.5V8.5625Z" fill="white" />
</svg>
